<svg xmlns="http://www.w3.org/2000/svg" xmlns:v="https://svgstorm.com"
viewBox = "0 0 1200 630"
width="1200"
height="630">
<g fill="#000000" fill-opacity="0.00" stroke="None">
<path d="
M 0.00 630.00 
L 1200.00 630.00
L 1200.00 0.00
L 0.00 0.00
L 0.00 630.00
M 574.00 66.00 
C 593.66 64.66 613.65 65.46 633.00 67.00
C 640.08 67.56 644.12 67.75 650.00 70.00
C 657.44 71.09 663.93 72.94 671.00 75.00
C 674.03 75.88 677.29 77.09 680.00 78.00
C 683.19 78.77 685.92 79.88 689.00 81.00
C 691.45 81.89 693.84 83.01 696.00 84.00
C 727.53 94.51 753.52 115.51 777.10 137.90 C 800.68 160.29 817.62 188.27 831.32 219.68 C 845.02 251.09 853.36 298.59 850.00 335.00 C 846.64 371.41 835.46 408.00 817.69 438.70 C 799.93 469.39 782.54 489.29 755.25 511.25 C 727.97 533.22 699.07 547.04 664.93 556.93 C 630.78 566.82 577.63 567.94 542.99 559.01 C 508.36 550.07 478.19 537.22 450.30 515.70 C 422.41 494.18 404.56 474.79 386.08 444.92 C 367.59 415.06 355.56 380.38 351.02 343.98 C 346.49 307.57 353.02 258.00 365.98 224.98 C 378.93 191.95 396.13 168.76 419.00 142.00
C 421.78 138.75 424.80 135.74 428.00 133.00
C 444.88 118.58 461.04 104.25 481.08 95.08 C 501.11 85.90 524.26 71.10 547.00 70.00
C 548.92 69.25 550.14 67.90 552.00 67.00
C 552.77 66.63 554.11 66.36 555.00 66.00
C 560.95 63.62 567.46 66.45 574.00 66.00 Z"/>
</g>
<g fill="#4E6B93" fill-opacity="0.39" stroke="None">
<path d="
M 555.00 66.00 
C 558.72 65.26 563.06 66.72 566.00 67.00
C 568.79 66.75 571.82 66.39 574.00 66.00
C 567.46 66.45 560.95 63.62 555.00 66.00 Z"/>
</g>
<g fill="#062F68" fill-opacity="0.97" stroke="None">
<path d="
M 574.00 66.00 
C 571.82 66.39 568.79 66.75 566.00 67.00
C 560.86 67.45 555.14 68.95 550.00 70.00
C 548.60 70.29 547.70 69.97 547.00 70.00
C 524.26 71.10 501.11 85.90 481.08 95.08 C 461.04 104.25 444.88 118.58 428.00 133.00
C 425.08 135.92 421.87 139.13 419.00 142.00
C 396.13 168.76 378.93 191.95 365.98 224.98 C 353.02 258.00 346.49 307.57 351.02 343.98 C 355.56 380.38 367.59 415.06 386.08 444.92 C 404.56 474.79 422.41 494.18 450.30 515.70 C 478.19 537.22 508.36 550.07 542.99 559.01 C 577.63 567.94 630.78 566.82 664.93 556.93 C 699.07 547.04 727.97 533.22 755.25 511.25 C 782.54 489.29 799.93 469.39 817.69 438.70 C 835.46 408.00 846.64 371.41 850.00 335.00 C 853.36 298.59 845.02 251.09 831.32 219.68 C 817.62 188.27 800.68 160.29 777.10 137.90 C 753.52 115.51 727.53 94.51 696.00 84.00
C 693.44 83.15 691.22 82.10 689.00 81.00
C 685.92 79.88 683.19 78.77 680.00 78.00
C 676.76 77.22 673.83 76.12 671.00 75.00
C 663.93 72.94 657.44 71.09 650.00 70.00
C 644.34 69.17 638.19 68.00 633.00 67.00
C 613.65 65.46 593.66 64.66 574.00 66.00
M 841.00 302.00 
C 841.17 303.20 841.93 305.19 842.00 307.00
C 842.21 312.27 842.21 317.73 842.00 323.00
C 841.93 324.84 841.17 326.82 841.00 328.00
C 836.23 447.40 732.01 556.00 610.00 556.00
C 603.71 556.61 596.23 556.60 590.00 556.00
C 468.03 556.00 363.77 447.40 359.00 328.00
C 358.83 326.80 358.07 324.81 358.00 323.00
C 357.79 317.73 357.79 312.27 358.00 307.00
C 358.07 305.16 358.83 303.18 359.00 302.00
C 364.06 175.83 474.13 72.99 600.00 73.00 C 725.87 73.01 835.96 175.81 841.00 302.00 Z"/>
</g>
<g fill="#DCE2E9" fill-opacity="0.96" stroke="None">
<path d="
M 552.00 67.00 
C 551.21 67.53 550.71 69.51 550.00 70.00
C 555.14 68.95 560.86 67.45 566.00 67.00
C 563.06 66.72 558.72 65.26 555.00 66.00
C 554.11 66.36 552.77 66.63 552.00 67.00 Z"/>
</g>
<g fill="#45628D" fill-opacity="0.48" stroke="None">
<path d="
M 547.00 70.00 
C 547.70 69.97 548.60 70.29 550.00 70.00
C 550.71 69.51 551.21 67.53 552.00 67.00
C 550.14 67.90 548.92 69.25 547.00 70.00 Z"/>
</g>
<g fill="#657EA1" fill-opacity="0.63" stroke="None">
<path d="
M 650.00 70.00 
C 644.12 67.75 640.08 67.56 633.00 67.00
C 638.19 68.00 644.34 69.17 650.00 70.00 Z"/>
</g>
<g fill="#F5F6F8" fill-opacity="1.00" stroke="None">
<path d="
M 359.00 302.00 
C 358.93 303.84 358.17 305.82 358.00 307.00
C 357.79 312.27 357.79 317.73 358.00 323.00
C 358.17 324.20 358.93 326.19 359.00 328.00
C 363.77 447.40 468.03 556.00 590.00 556.00
C 596.67 556.00 603.33 556.00 610.00 556.00
C 732.01 556.00 836.23 447.40 841.00 328.00
C 841.07 326.16 841.83 324.18 842.00 323.00
C 842.21 317.73 842.21 312.27 842.00 307.00
C 841.83 305.80 841.07 303.81 841.00 302.00
C 835.96 175.81 725.87 73.01 600.00 73.00 C 474.13 72.99 364.06 175.83 359.00 302.00
M 618.00 82.00 
C 697.04 89.65 765.50 132.28 805.75 204.25 C 846.01 276.21 840.26 379.56 792.23 447.23 C 744.20 514.90 664.05 554.58 582.33 547.67 C 500.61 540.76 435.26 497.39 394.25 425.75 C 353.23 354.11 359.32 249.79 407.77 182.77 C 456.22 115.75 534.22 73.89 618.00 82.00 Z"/>
</g>
<g fill="#556E92" fill-opacity="0.60" stroke="None">
<path d="
M 680.00 78.00 
C 677.29 77.09 674.03 75.88 671.00 75.00
C 673.83 76.12 676.76 77.22 680.00 78.00 Z"/>
</g>
<g fill="#4E6B93" fill-opacity="0.56" stroke="None">
<path d="
M 696.00 84.00 
C 693.84 83.01 691.45 81.89 689.00 81.00
C 691.22 82.10 693.44 83.15 696.00 84.00 Z"/>
</g>
<g fill="#022C65" fill-opacity="1.00" stroke="None">
<path d="
M 618.00 82.00 
C 534.22 73.89 456.22 115.75 407.77 182.77 C 359.32 249.79 353.23 354.11 394.25 425.75 C 435.26 497.39 500.61 540.76 582.33 547.67 C 664.05 554.58 744.20 514.90 792.23 447.23 C 840.26 379.56 846.01 276.21 805.75 204.25 C 765.50 132.28 697.04 89.65 618.00 82.00
M 671.00 108.00 
C 669.63 118.76 663.88 128.34 662.00 139.00
C 647.43 134.29 632.27 131.47 617.00 129.00
C 617.67 134.69 612.24 139.52 607.00 140.00
C 602.77 133.94 612.19 132.13 611.00 125.00 C 609.81 117.87 610.35 107.86 618.00 109.00
C 619.95 112.87 613.59 123.19 619.08 124.92 C 624.58 126.64 630.50 125.39 636.00 127.00
C 629.21 117.33 635.98 109.61 646.67 112.33 C 657.36 115.05 657.35 124.15 651.00 131.00
C 665.80 136.46 657.37 104.76 671.00 108.00
M 588.00 108.00 
C 587.38 113.25 588.83 117.93 589.00 123.00
C 591.74 122.97 594.08 124.63 597.00 124.00
C 597.00 118.67 597.00 113.33 597.00 108.00
C 608.09 106.28 601.01 122.29 603.00 129.00
C 598.05 128.33 591.04 130.98 588.00 126.00
C 578.95 132.20 565.98 131.09 555.93 134.93 C 545.87 138.76 530.89 142.25 530.00 127.00
C 519.46 125.29 524.66 142.97 533.00 137.00
C 533.63 147.80 518.09 143.03 518.01 133.99 C 517.92 124.96 525.09 120.00 534.00 120.00
C 535.09 124.65 537.04 134.68 543.22 132.22 C 549.40 129.76 555.71 129.91 561.67 127.67 C 567.63 125.43 575.49 126.99 580.74 123.74 C 586.00 120.49 576.42 104.30 588.00 108.00
M 525.00 119.00 
C 518.74 107.54 538.38 115.24 525.00 119.00
M 684.00 113.00 
C 681.89 123.80 675.40 133.28 673.00 144.00
C 670.89 143.60 668.34 142.62 667.00 141.00
C 669.24 135.70 671.18 129.86 673.77 124.77 C 676.36 119.68 676.17 109.34 684.00 113.00
M 523.00 120.00 
C 519.04 122.20 516.15 122.00 515.00 117.00
C 518.71 114.29 522.51 115.08 523.00 120.00
M 488.00 128.00 
C 493.78 136.59 498.68 146.08 505.00 154.00
C 505.61 157.02 501.50 156.57 501.00 159.00
C 494.30 150.40 488.69 140.48 483.00 131.00
C 484.67 129.89 486.13 128.70 488.00 128.00
M 713.00 131.00 
C 712.36 136.43 708.45 136.03 705.00 133.00
C 706.58 128.44 709.58 128.99 713.00 131.00
M 602.00 138.00 
C 601.44 138.28 597.54 138.30 597.00 138.00
C 595.79 137.33 595.58 134.32 596.00 133.00
C 597.68 131.26 600.63 132.27 603.00 132.00
C 602.53 133.88 604.06 136.93 602.00 138.00
M 584.00 135.00 
C 584.37 136.22 583.71 137.75 584.00 139.00
C 581.54 138.88 577.02 140.08 578.00 136.00
C 576.84 132.29 582.94 131.55 584.00 135.00
M 592.00 133.00 
C 594.57 135.57 589.24 140.72 586.33 137.67 C 583.42 134.62 589.67 130.67 592.00 133.00
M 716.00 133.00 
C 719.56 132.66 721.44 139.53 716.92 139.92 C 712.39 140.31 712.01 133.38 716.00 133.00
M 495.00 160.00 
C 490.96 165.43 484.45 171.80 477.92 174.92 C 471.39 178.04 468.75 191.28 460.00 186.00
C 462.50 181.93 467.45 179.57 469.00 175.00
C 464.41 172.71 459.80 170.64 455.00 169.00
C 457.65 161.14 464.31 165.64 470.22 168.78 C 476.14 171.91 481.83 164.24 487.00 162.00
C 483.43 153.67 481.08 152.78 475.25 144.75 C 469.41 136.73 477.79 134.92 481.77 143.23 C 485.75 151.54 490.23 153.11 495.00 160.00
M 744.00 190.00 
C 745.66 180.38 752.62 175.56 760.25 182.75 C 767.87 189.95 765.77 202.50 754.00 201.00
C 757.72 211.60 766.11 193.36 771.75 200.25 C 777.39 207.14 779.42 213.92 770.92 219.92 C 762.41 225.92 757.78 219.16 754.23 211.77 C 750.68 204.38 746.80 199.52 741.25 193.75 C 735.69 187.98 731.51 183.58 725.25 178.75 C 719.00 173.91 715.98 168.56 708.75 164.25 C 701.53 159.93 702.87 150.95 709.00 145.00
C 702.06 138.33 694.68 150.28 702.00 155.00
C 691.52 161.97 688.80 141.92 698.25 138.25 C 707.70 134.58 719.88 143.32 711.75 151.75 C 703.61 160.18 720.73 164.73 725.25 170.75 C 729.77 176.78 740.86 182.39 744.00 190.00
M 766.00 304.00 
C 766.67 310.92 766.66 319.15 766.00 326.00
C 766.00 414.12 680.36 485.19 594.00 482.00 C 507.64 478.81 433.02 403.11 433.00 315.00 C 432.98 226.89 507.75 151.16 594.07 148.07 C 680.40 144.99 766.00 215.81 766.00 304.00
M 446.00 179.00 
C 453.28 187.05 470.98 193.28 463.00 207.00
C 461.01 206.27 457.86 206.46 457.00 204.00
C 460.91 201.52 458.31 195.16 454.00 195.00
C 459.31 203.65 444.11 206.94 439.25 199.75 C 434.39 192.56 438.58 183.25 446.00 179.00
M 445.00 211.00 
C 444.03 216.26 440.23 221.85 435.00 224.00
C 434.50 238.26 422.72 253.19 421.01 268.01 C 419.30 282.82 412.08 277.36 402.00 278.00
C 398.26 286.84 414.33 289.47 413.00 280.00
C 420.04 281.61 417.33 289.40 411.77 291.77 C 406.21 294.14 397.80 289.69 396.70 284.30 C 395.59 278.92 396.60 268.10 404.22 271.78 C 411.84 275.46 415.27 269.98 416.33 263.33 C 417.39 256.67 420.66 252.28 421.98 245.98 C 423.29 239.67 427.46 236.21 428.92 229.92 C 430.39 223.64 420.55 222.03 417.00 219.00
C 418.34 209.35 428.26 218.84 433.00 221.00
C 434.52 218.49 437.22 216.90 438.00 214.00
C 430.14 209.59 423.08 204.00 415.00 200.00
C 417.72 191.19 423.82 198.29 428.75 201.25 C 433.67 204.22 439.73 208.59 445.00 211.00
M 793.00 215.00 
C 800.47 227.09 776.82 223.83 773.31 231.31 C 769.79 238.78 781.34 252.14 783.00 260.00
C 794.38 257.85 783.50 245.47 791.00 242.00
C 795.49 246.38 797.25 252.81 794.23 258.23 C 791.21 263.64 783.17 265.36 785.00 273.00
C 794.65 273.72 795.99 269.38 806.07 269.07 C 816.16 268.76 811.00 276.89 802.33 276.33 C 793.65 275.77 789.64 281.34 781.00 280.00
C 779.87 274.55 777.56 268.62 780.00 263.00
C 775.72 254.47 766.40 243.30 766.03 232.98 C 765.65 222.65 787.54 220.85 793.00 215.00
M 448.00 225.00 
C 446.63 229.52 444.36 231.85 440.00 229.00
C 440.82 224.44 443.93 222.21 448.00 225.00
M 440.00 230.00 
C 446.62 232.23 441.00 241.06 436.00 236.00
C 437.44 234.08 437.50 230.96 440.00 230.00
M 772.00 257.00 
C 767.26 258.69 766.18 256.21 765.00 252.00
C 769.08 248.81 772.58 252.70 772.00 257.00
M 395.00 271.00 
C 395.14 284.35 381.87 269.29 395.00 271.00
M 393.00 279.00 
C 395.94 293.69 379.11 278.44 393.00 279.00
M 816.00 288.00 
C 805.11 289.72 794.29 291.78 783.00 292.00
C 780.79 283.19 790.50 286.33 796.00 285.00 C 801.50 283.67 808.41 283.31 814.00 282.00
C 815.29 283.41 816.04 285.86 816.00 288.00
M 418.00 342.00 
C 422.17 350.27 412.90 353.74 406.77 356.77 C 400.64 359.80 394.24 363.35 388.00 366.00
C 385.72 361.61 387.02 358.27 392.08 357.08 C 397.13 355.88 394.08 348.66 394.00 345.00
C 388.57 344.67 381.56 344.48 383.00 337.00
C 394.49 339.31 406.27 340.55 418.00 342.00
M 821.00 360.00 
C 814.30 361.95 813.35 352.16 806.98 354.98 C 800.60 357.79 796.34 357.00 790.00 359.00
C 788.74 349.05 799.35 351.83 805.00 349.00
C 799.54 347.04 790.53 346.11 793.00 338.00
C 803.30 342.32 818.80 347.19 821.00 360.00
M 785.00 374.00 
C 782.32 370.47 782.32 367.91 785.00 367.00
C 787.55 366.13 790.96 368.56 790.00 363.00
C 793.87 363.11 796.10 365.28 794.00 369.00
C 798.44 370.07 805.57 373.43 807.00 367.00
C 814.30 367.18 810.52 379.98 804.00 378.00 C 797.47 376.02 792.68 377.23 787.00 377.00
C 787.29 375.51 786.98 373.62 785.00 374.00
M 409.00 372.00 
C 411.68 372.24 414.51 375.14 414.00 378.00
C 408.22 381.78 406.23 372.27 400.78 374.78 C 395.33 377.29 389.35 378.24 389.00 371.00
C 395.05 369.57 415.73 359.79 409.00 372.00
M 781.00 378.00 
C 784.01 379.93 780.72 387.03 776.78 384.22 C 772.83 381.40 776.84 375.33 781.00 378.00
M 804.00 394.00 
C 796.74 392.64 790.26 388.57 783.00 387.00
C 783.26 384.56 784.76 382.48 785.00 380.00
C 791.42 384.52 808.11 383.11 804.00 394.00
M 412.00 393.00 
C 414.15 393.14 413.93 391.71 414.00 390.00
C 414.10 387.61 411.99 385.95 411.00 384.00
C 416.44 379.07 422.76 392.00 419.07 397.07 C 415.38 402.14 406.36 403.29 401.00 406.00
C 402.18 399.26 393.30 394.83 396.93 387.93 C 400.55 381.02 411.72 386.36 412.00 393.00
M 785.00 396.00 
C 782.50 396.98 781.54 399.46 782.00 402.00
C 785.29 400.78 792.11 393.05 795.69 397.31 C 799.28 401.56 802.22 407.49 795.25 412.25 C 788.27 417.00 794.40 405.71 793.21 403.77 C 792.03 401.83 782.76 412.84 779.31 407.69 C 775.85 402.54 776.13 396.49 781.00 392.00
C 782.36 393.46 785.22 393.58 785.00 396.00
M 433.00 396.00 
C 433.00 398.54 435.60 400.26 435.00 403.00
C 431.54 403.14 429.25 406.46 426.00 407.00
C 445.62 421.43 406.33 438.47 409.00 415.00
C 406.32 417.20 404.78 412.09 405.00 410.00
C 414.62 406.22 423.51 400.04 433.00 396.00
M 778.00 411.00 
C 772.44 418.18 783.46 421.69 788.00 425.00
C 787.45 427.28 785.01 428.59 785.00 431.00
C 778.40 427.78 772.74 422.67 766.00 420.00
C 766.44 417.24 768.95 413.32 772.00 416.00
C 768.86 410.64 773.58 405.43 778.00 411.00
M 452.00 423.00 
C 458.75 429.68 448.91 433.10 443.92 436.92 C 438.93 440.74 432.62 446.27 427.00 449.00
C 420.81 442.54 429.79 438.85 435.08 435.08 C 440.38 431.32 446.20 426.09 452.00 423.00
M 774.00 430.00 
C 773.47 435.15 767.67 437.93 767.00 443.00
C 772.54 443.65 773.98 437.81 776.00 434.00
C 785.07 440.77 768.91 455.43 759.75 445.25 C 750.60 435.06 762.03 420.51 774.00 430.00
M 459.00 459.00 
C 457.83 461.53 454.97 463.32 453.00 465.00
C 451.26 466.48 448.94 467.83 448.00 470.00
C 445.25 470.27 444.32 466.71 442.00 466.00
C 442.71 460.93 455.37 459.21 452.99 452.99 C 450.61 446.77 440.48 456.65 439.00 460.00
C 436.25 460.27 435.32 456.71 433.00 456.00
C 437.35 450.18 443.70 445.77 448.00 440.00
C 450.45 441.74 454.48 444.29 451.00 447.00
C 457.41 445.79 462.47 453.61 459.00 459.00
M 752.00 441.00 
C 753.97 448.56 760.03 454.43 762.00 462.00
C 754.49 470.90 744.93 458.24 736.00 458.00
C 735.73 455.25 739.29 454.32 740.00 452.00
C 744.98 453.06 749.00 456.94 754.00 458.00
C 752.03 453.43 747.86 450.01 747.00 445.00
C 749.04 444.19 749.97 441.73 752.00 441.00
M 728.00 453.00 
C 732.16 454.58 729.54 461.92 725.00 460.00 C 720.46 458.07 724.35 451.61 728.00 453.00
M 476.00 460.00 
C 472.73 462.66 472.96 465.33 476.00 468.00
C 473.36 471.15 471.16 470.77 468.00 469.00
C 466.47 472.05 459.10 476.06 464.00 479.00
C 462.74 488.21 451.23 477.78 455.93 472.93 C 460.62 468.07 462.88 463.86 464.00 458.00
C 468.30 459.07 471.82 455.99 476.00 460.00
M 735.00 461.00 
C 739.69 464.51 742.19 470.84 747.00 474.00
C 746.84 476.64 743.98 478.62 742.00 480.00
C 739.05 473.74 731.80 470.27 729.00 464.00
C 728.42 460.59 732.39 459.04 735.00 461.00
M 726.00 493.00 
C 720.23 500.22 717.19 491.10 713.70 487.30 C 710.21 483.50 704.67 475.23 714.00 477.00
C 714.67 468.23 725.43 469.08 729.25 473.75 C 733.06 478.43 739.45 485.34 732.77 487.77 C 726.09 490.20 726.14 472.56 719.77 476.79 C 713.40 481.02 725.09 488.82 726.00 493.00
M 698.00 471.00 
C 701.96 481.31 719.28 498.93 703.30 507.30 C 687.32 515.68 682.54 491.22 676.00 482.00
C 678.01 480.95 679.98 480.02 682.00 479.00
C 687.52 482.84 690.68 506.56 700.22 502.22 C 709.77 497.87 692.22 479.56 692.00 473.00
C 694.25 473.14 695.71 470.84 698.00 471.00
M 475.00 484.00 
C 474.39 487.79 486.54 496.78 479.97 496.97 C 473.41 497.16 468.98 489.27 469.00 484.00 C 469.02 478.72 476.59 470.96 483.00 473.00 C 489.41 475.04 493.41 480.61 489.69 487.69 C 485.98 494.78 480.33 484.96 475.00 484.00
M 502.00 488.00 
C 504.16 485.99 506.68 487.65 509.00 488.00
C 508.60 490.11 507.63 492.66 506.00 494.00
C 498.55 489.76 495.36 500.21 493.00 505.00
C 490.99 503.95 489.02 503.02 487.00 502.00
C 489.12 495.17 494.09 489.57 497.00 483.00
C 499.51 483.22 502.80 484.83 502.00 488.00
M 517.00 496.00 
C 535.38 488.70 528.46 523.83 516.00 517.00
C 515.72 513.22 524.87 503.45 519.74 500.26 C 514.62 497.06 511.37 510.36 510.00 513.00
C 507.48 513.06 505.27 511.92 503.00 511.00
C 506.07 504.32 509.23 497.78 512.00 491.00
C 514.51 491.22 517.80 492.83 517.00 496.00
M 673.00 521.00 
C 659.99 522.98 662.73 501.18 656.00 493.00
C 663.71 487.48 665.00 496.17 666.93 502.07 C 668.85 507.98 672.10 514.65 673.00 521.00
M 580.00 501.00 
C 584.21 502.70 580.22 509.45 576.00 507.00 C 571.78 504.55 575.69 499.26 580.00 501.00
M 545.00 509.00 
C 542.40 504.49 533.67 508.58 535.00 502.00
C 545.72 499.77 552.57 506.11 550.02 516.02 C 547.48 525.94 542.87 528.27 532.93 523.07 C 522.99 517.87 537.36 504.84 545.00 509.00
M 570.00 510.00 
C 571.26 514.11 567.34 512.76 567.00 513.00
C 566.44 513.50 564.65 512.60 564.00 513.00
C 564.15 517.70 560.54 524.59 567.00 526.00
C 567.25 532.18 555.91 530.96 556.03 524.97 C 556.15 518.98 557.52 512.59 555.00 507.00
C 559.59 506.05 559.83 499.92 566.00 502.00
C 564.11 507.46 566.58 507.27 570.00 510.00
M 660.00 525.00 
C 653.21 523.26 647.62 532.64 641.25 526.75 C 634.89 520.86 643.70 513.66 649.00 512.00
C 646.83 509.37 635.24 514.25 639.26 508.26 C 643.28 502.27 651.24 504.46 654.75 508.25 C 658.26 512.04 657.97 520.31 660.00 525.00
M 620.00 517.00 
C 619.56 518.28 619.97 520.64 620.00 522.00
C 620.11 527.97 622.66 533.81 614.00 533.00
C 612.85 525.71 613.00 518.09 611.00 511.00
C 617.44 513.39 622.47 506.45 629.07 509.93 C 635.67 513.41 632.05 524.50 635.00 530.00
C 621.39 538.43 631.45 508.46 620.00 517.00
M 581.00 510.00 
C 580.35 517.32 578.54 524.38 579.00 532.00
C 569.83 534.59 572.22 526.53 572.93 520.93 C 573.64 515.32 571.92 507.22 581.00 510.00
M 601.00 511.00 
C 614.51 515.10 604.73 539.90 591.33 532.67 C 577.93 525.44 586.67 506.65 601.00 511.00 Z"/>
</g>
<g fill="#F0F2F5" fill-opacity="1.00" stroke="None">
<path d="
M 671.00 108.00 
C 657.37 104.76 665.80 136.46 651.00 131.00
C 657.35 124.15 657.36 115.05 646.67 112.33 C 635.98 109.61 629.21 117.33 636.00 127.00
C 630.50 125.39 624.58 126.64 619.08 124.92 C 613.59 123.19 619.95 112.87 618.00 109.00
C 610.35 107.86 609.81 117.87 611.00 125.00 C 612.19 132.13 602.77 133.94 607.00 140.00
C 612.24 139.52 617.67 134.69 617.00 129.00
C 632.27 131.47 647.43 134.29 662.00 139.00
C 663.88 128.34 669.63 118.76 671.00 108.00
M 639.00 118.00 
C 644.34 116.32 653.18 120.13 647.75 125.75 C 642.31 131.36 639.22 122.54 639.00 118.00 Z"/>
</g>
<g fill="#F1F3F6" fill-opacity="1.00" stroke="None">
<path d="
M 588.00 108.00 
C 576.42 104.30 586.00 120.49 580.74 123.74 C 575.49 126.99 567.63 125.43 561.67 127.67 C 555.71 129.91 549.40 129.76 543.22 132.22 C 537.04 134.68 535.09 124.65 534.00 120.00
C 525.09 120.00 517.92 124.96 518.01 133.99 C 518.09 143.03 533.63 147.80 533.00 137.00
C 524.66 142.97 519.46 125.29 530.00 127.00
C 530.89 142.25 545.87 138.76 555.93 134.93 C 565.98 131.09 578.95 132.20 588.00 126.00
C 591.04 130.98 598.05 128.33 603.00 129.00
C 601.01 122.29 608.09 106.28 597.00 108.00
C 597.00 113.33 597.00 118.67 597.00 124.00
C 594.08 124.63 591.74 122.97 589.00 123.00
C 588.83 117.93 587.38 113.25 588.00 108.00 Z"/>
</g>
<g fill="#E6EAF0" fill-opacity="1.00" stroke="None">
<path d="
M 525.00 119.00 
C 538.38 115.24 518.74 107.54 525.00 119.00 Z"/>
</g>
<g fill="#EFF2F5" fill-opacity="1.00" stroke="None">
<path d="
M 684.00 113.00 
C 676.17 109.34 676.36 119.68 673.77 124.77 C 671.18 129.86 669.24 135.70 667.00 141.00
C 668.34 142.62 670.89 143.60 673.00 144.00
C 675.40 133.28 681.89 123.80 684.00 113.00 Z"/>
</g>
<g fill="#E8ECF0" fill-opacity="1.00" stroke="None">
<path d="
M 523.00 120.00 
C 522.51 115.08 518.71 114.29 515.00 117.00
C 516.15 122.00 519.04 122.20 523.00 120.00 Z"/>
</g>
<g fill="#09316A" fill-opacity="1.00" stroke="None">
<path d="
M 639.00 118.00 
C 639.22 122.54 642.31 131.36 647.75 125.75 C 653.18 120.13 644.34 116.32 639.00 118.00 Z"/>
</g>
<g fill="#F0F2F5" fill-opacity="1.00" stroke="None">
<path d="
M 488.00 128.00 
C 486.13 128.70 484.67 129.89 483.00 131.00
C 488.69 140.48 494.30 150.40 501.00 159.00
C 501.50 156.57 505.61 157.02 505.00 154.00
C 498.68 146.08 493.78 136.59 488.00 128.00 Z"/>
</g>
<g fill="#EBEEF2" fill-opacity="1.00" stroke="None">
<path d="
M 713.00 131.00 
C 709.58 128.99 706.58 128.44 705.00 133.00
C 708.45 136.03 712.36 136.43 713.00 131.00 Z"/>
</g>
<g fill="#6F86A8" fill-opacity="1.00" stroke="None">
<path d="
M 596.00 133.00 
C 596.05 132.85 597.00 133.00 597.00 133.00
C 598.58 132.64 600.40 133.27 602.00 133.00
C 602.00 134.67 602.00 136.33 602.00 138.00
C 604.06 136.93 602.53 133.88 603.00 132.00
C 600.63 132.27 597.68 131.26 596.00 133.00 Z"/>
</g>
<g fill="#3D618C" fill-opacity="0.03" stroke="None">
<path d="
M 419.00 142.00 
C 421.87 139.13 425.08 135.92 428.00 133.00
C 424.80 135.74 421.78 138.75 419.00 142.00 Z"/>
</g>
<g fill="#788FAE" fill-opacity="1.00" stroke="None">
<path d="
M 578.00 136.00 
C 578.33 133.81 582.73 132.75 584.00 135.00
C 582.94 131.55 576.84 132.29 578.00 136.00 Z"/>
</g>
<g fill="#F9FAFB" fill-opacity="1.00" stroke="None">
<path d="
M 592.00 133.00 
C 589.67 130.67 583.42 134.62 586.33 137.67 C 589.24 140.72 594.57 135.57 592.00 133.00 Z"/>
</g>
<g fill="#AEBDCE" fill-opacity="1.00" stroke="None">
<path d="
M 597.00 138.00 
C 596.61 136.47 597.51 134.49 597.00 133.00
C 597.00 133.00 596.05 132.85 596.00 133.00
C 595.58 134.32 595.79 137.33 597.00 138.00 Z"/>
</g>
<g fill="#FAFAFB" fill-opacity="1.00" stroke="None">
<path d="
M 597.00 138.00 
C 597.54 138.30 601.44 138.28 602.00 138.00
C 602.00 136.33 602.00 134.67 602.00 133.00
C 600.40 133.27 598.58 132.64 597.00 133.00
C 597.51 134.49 596.61 136.47 597.00 138.00 Z"/>
</g>
<g fill="#EBEEF3" fill-opacity="1.00" stroke="None">
<path d="
M 716.00 133.00 
C 712.01 133.38 712.39 140.31 716.92 139.92 C 721.44 139.53 719.56 132.66 716.00 133.00 Z"/>
</g>
<g fill="#F6F7F9" fill-opacity="1.00" stroke="None">
<path d="
M 578.00 136.00 
C 577.02 140.08 581.54 138.88 584.00 139.00
C 583.71 137.75 584.37 136.22 584.00 135.00
C 582.73 132.75 578.33 133.81 578.00 136.00 Z"/>
</g>
<g fill="#EEF1F4" fill-opacity="1.00" stroke="None">
<path d="
M 495.00 160.00 
C 490.23 153.11 485.75 151.54 481.77 143.23 C 477.79 134.92 469.41 136.73 475.25 144.75 C 481.08 152.78 483.43 153.67 487.00 162.00
C 481.83 164.24 476.14 171.91 470.22 168.78 C 464.31 165.64 457.65 161.14 455.00 169.00
C 459.80 170.64 464.41 172.71 469.00 175.00
C 467.45 179.57 462.50 181.93 460.00 186.00
C 468.75 191.28 471.39 178.04 477.92 174.92 C 484.45 171.80 490.96 165.43 495.00 160.00 Z"/>
</g>
<g fill="#F1F3F6" fill-opacity="1.00" stroke="None">
<path d="
M 744.00 190.00 
C 740.86 182.39 729.77 176.78 725.25 170.75 C 720.73 164.73 703.61 160.18 711.75 151.75 C 719.88 143.32 707.70 134.58 698.25 138.25 C 688.80 141.92 691.52 161.97 702.00 155.00
C 694.68 150.28 702.06 138.33 709.00 145.00
C 702.87 150.95 701.53 159.93 708.75 164.25 C 715.98 168.56 719.00 173.91 725.25 178.75 C 731.51 183.58 735.69 187.98 741.25 193.75 C 746.80 199.52 750.68 204.38 754.23 211.77 C 757.78 219.16 762.41 225.92 770.92 219.92 C 779.42 213.92 777.39 207.14 771.75 200.25 C 766.11 193.36 757.72 211.60 754.00 201.00
C 765.77 202.50 767.87 189.95 760.25 182.75 C 752.62 175.56 745.66 180.38 744.00 190.00
M 749.00 195.00 
C 749.47 191.21 750.44 187.51 752.00 184.00
C 761.90 186.35 759.56 200.76 749.00 195.00
M 760.00 210.00 
C 763.49 206.48 772.57 203.42 771.00 211.00 C 769.43 218.59 759.54 216.05 760.00 210.00 Z"/>
</g>
<g fill="#F5F6F8" fill-opacity="1.00" stroke="None">
<path d="
M 766.00 326.00 
C 766.00 318.67 766.00 311.33 766.00 304.00
C 766.00 215.81 680.40 144.99 594.07 148.07 C 507.75 151.16 432.98 226.89 433.00 315.00 C 433.02 403.11 507.64 478.81 594.00 482.00 C 680.36 485.19 766.00 414.12 766.00 326.00
M 608.00 157.00 
C 644.21 157.00 678.88 173.82 706.00 197.00
C 710.29 200.66 714.38 204.76 718.00 209.00
C 741.95 237.02 758.00 271.60 758.00 309.00
C 758.49 314.07 758.61 319.97 758.00 325.00
C 756.32 409.09 678.28 474.54 596.00 473.00 C 513.72 471.46 442.38 399.44 442.00 317.00 C 441.62 234.56 508.35 157.00 593.00 157.00
C 597.72 156.54 603.35 156.55 608.00 157.00 Z"/>
</g>
<g fill="#8EA1B9" fill-opacity="1.00" stroke="None">
<path d="
M 593.00 157.00 
C 598.00 157.00 603.00 157.00 608.00 157.00
C 603.35 156.55 597.72 156.54 593.00 157.00 Z"/>
</g>
<g fill="#002A64" fill-opacity="1.00" stroke="None">
<path d="
M 758.00 325.00 
C 758.11 319.67 758.00 314.33 758.00 309.00
C 758.00 271.60 741.95 237.02 718.00 209.00
C 714.08 205.08 709.87 200.87 706.00 197.00
C 678.88 173.82 644.21 157.00 608.00 157.00
C 603.00 157.00 598.00 157.00 593.00 157.00
C 508.35 157.00 441.62 234.56 442.00 317.00 C 442.38 399.44 513.72 471.46 596.00 473.00 C 678.28 474.54 756.32 409.09 758.00 325.00
M 563.00 197.00 
C 568.58 203.86 567.77 215.91 571.98 224.02 C 576.18 232.14 578.21 242.56 581.78 251.22 C 585.34 259.89 587.92 270.06 591.00 279.00
C 586.02 277.52 574.92 281.89 572.08 276.92 C 569.25 271.94 569.34 266.14 567.00 261.00
C 557.67 261.00 548.33 261.00 539.00 261.00
C 538.03 267.18 535.57 272.95 534.00 279.00
C 528.00 279.00 522.00 279.00 516.00 279.00
C 523.86 250.95 535.21 223.84 544.00 196.00
C 546.95 193.38 560.60 194.05 563.00 197.00
M 615.00 196.00 
C 618.21 200.58 613.63 210.09 615.00 216.00 C 616.37 221.91 614.36 230.51 615.00 237.00 C 615.64 243.49 614.67 251.26 615.00 258.00 C 615.33 264.74 614.75 272.20 615.00 279.00
C 609.00 279.00 603.00 279.00 597.00 279.00
C 597.00 251.33 597.00 223.67 597.00 196.00
C 598.43 193.95 613.62 194.02 615.00 196.00
M 639.00 196.00 
C 642.58 201.12 637.81 206.67 639.00 214.00 C 640.19 221.33 639.11 223.07 639.00 233.00 C 638.89 242.93 637.33 256.31 649.00 260.00
C 651.04 260.34 653.95 260.24 656.00 260.00
C 663.00 258.27 664.60 254.75 666.00 248.00
C 666.69 240.38 666.13 231.59 666.00 224.00 C 665.87 216.41 667.04 207.29 666.00 200.00 C 664.96 192.71 682.02 192.90 685.00 196.00
C 686.56 213.26 686.93 235.66 684.00 252.00
C 682.99 266.81 671.78 277.44 657.00 278.00
C 653.92 278.44 651.02 278.43 648.00 278.00
C 642.38 277.79 636.71 276.37 632.30 272.70 C 627.90 269.02 625.10 265.33 623.08 259.92 C 621.05 254.52 620.18 246.28 621.00 240.00 C 621.82 233.72 619.43 223.99 621.00 218.00 C 622.57 212.01 617.64 200.80 621.00 196.00
C 622.43 193.95 637.62 194.02 639.00 196.00
M 595.00 308.00 
C 601.17 342.46 593.29 382.41 595.00 417.00
C 593.25 409.83 585.76 407.46 579.00 407.00
C 572.03 406.53 562.73 407.69 556.00 407.00 C 549.27 406.31 538.86 408.37 533.00 407.00 C 527.14 405.63 514.11 410.44 511.00 406.00
C 507.86 401.52 512.42 391.69 511.00 386.00 C 509.58 380.31 511.64 372.25 511.00 366.00 C 510.36 359.75 511.30 352.52 511.00 346.00 C 510.70 339.48 511.15 332.71 511.00 326.00 C 510.85 319.29 511.11 311.78 511.00 305.00
C 508.00 305.00 505.00 305.00 502.00 305.00
C 502.00 342.33 502.00 379.67 502.00 417.00
C 530.00 417.00 558.00 417.00 586.00 417.00
C 588.29 429.73 612.26 429.90 614.00 417.00
C 642.00 417.00 670.00 417.00 698.00 417.00
C 698.00 379.67 698.00 342.33 698.00 305.00
C 695.00 305.00 692.00 305.00 689.00 305.00
C 689.00 338.67 689.00 372.33 689.00 406.00
C 685.88 410.46 672.84 405.62 667.00 407.00 C 661.16 408.38 650.72 406.30 644.00 407.00 C 637.28 407.70 627.96 406.53 621.00 407.00
C 614.26 407.46 606.73 409.87 605.00 417.00
C 606.70 382.34 598.84 342.39 605.00 308.00
C 606.15 291.17 620.04 286.04 636.00 287.00 C 651.96 287.96 672.62 286.28 689.00 287.00
C 689.00 290.33 689.00 293.67 689.00 297.00
C 694.67 297.00 700.33 297.00 706.00 297.00
C 706.00 339.67 706.00 382.33 706.00 425.00
C 693.63 424.30 681.38 425.93 669.00 425.00 C 656.62 424.07 644.42 426.79 632.00 425.00 C 619.58 423.21 615.34 432.37 604.00 434.00
C 601.10 434.52 598.82 434.46 596.00 434.00
C 585.11 433.41 580.38 422.44 568.00 425.00 C 555.62 427.56 543.36 423.66 531.00 425.00 C 518.64 426.34 506.35 424.00 494.00 425.00
C 494.00 382.33 494.00 339.67 494.00 297.00
C 499.67 297.00 505.33 297.00 511.00 297.00
C 511.00 293.67 511.00 290.33 511.00 287.00
C 527.19 286.22 547.19 288.04 563.00 287.00 C 578.81 285.96 594.11 290.67 595.00 308.00 Z"/>
</g>
<g fill="#EEF1F4" fill-opacity="1.00" stroke="None">
<path d="
M 446.00 179.00 
C 438.58 183.25 434.39 192.56 439.25 199.75 C 444.11 206.94 459.31 203.65 454.00 195.00
C 458.31 195.16 460.91 201.52 457.00 204.00
C 457.86 206.46 461.01 206.27 463.00 207.00
C 470.98 193.28 453.28 187.05 446.00 179.00
M 454.00 193.00 
C 450.74 203.44 436.48 193.11 445.00 187.00
C 448.41 188.37 450.45 192.26 454.00 193.00 Z"/>
</g>
<g fill="#12386E" fill-opacity="1.00" stroke="None">
<path d="
M 749.00 195.00 
C 759.56 200.76 761.90 186.35 752.00 184.00
C 750.44 187.51 749.47 191.21 749.00 195.00 Z"/>
</g>
<g fill="#0C336B" fill-opacity="1.00" stroke="None">
<path d="
M 454.00 193.00 
C 450.45 192.26 448.41 188.37 445.00 187.00
C 436.48 193.11 450.74 203.44 454.00 193.00 Z"/>
</g>
<g fill="#F0F3F6" fill-opacity="1.00" stroke="None">
<path d="
M 445.00 211.00 
C 439.73 208.59 433.67 204.22 428.75 201.25 C 423.82 198.29 417.72 191.19 415.00 200.00
C 423.08 204.00 430.14 209.59 438.00 214.00
C 437.22 216.90 434.52 218.49 433.00 221.00
C 428.26 218.84 418.34 209.35 417.00 219.00
C 420.55 222.03 430.39 223.64 428.92 229.92 C 427.46 236.21 423.29 239.67 421.98 245.98 C 420.66 252.28 417.39 256.67 416.33 263.33 C 415.27 269.98 411.84 275.46 404.22 271.78 C 396.60 268.10 395.59 278.92 396.70 284.30 C 397.80 289.69 406.21 294.14 411.77 291.77 C 417.33 289.40 420.04 281.61 413.00 280.00
C 414.33 289.47 398.26 286.84 402.00 278.00
C 412.08 277.36 419.30 282.82 421.01 268.01 C 422.72 253.19 434.50 238.26 435.00 224.00
C 440.23 221.85 444.03 216.26 445.00 211.00 Z"/>
</g>
<g fill="#7B91AE" fill-opacity="1.00" stroke="None">
<path d="
M 544.00 196.00 
C 549.18 197.81 558.62 193.15 563.00 197.00
C 560.60 194.05 546.95 193.38 544.00 196.00 Z"/>
</g>
<g fill="#7C91AE" fill-opacity="1.00" stroke="None">
<path d="
M 597.00 196.00 
C 603.00 196.00 609.00 196.00 615.00 196.00
C 613.62 194.02 598.43 193.95 597.00 196.00 Z"/>
</g>
<g fill="#7C91AE" fill-opacity="1.00" stroke="None">
<path d="
M 621.00 196.00 
C 627.00 196.00 633.00 196.00 639.00 196.00
C 637.62 194.02 622.43 193.95 621.00 196.00 Z"/>
</g>
<g fill="#647EA1" fill-opacity="1.00" stroke="None">
<path d="
M 666.00 248.00 
C 669.36 231.79 665.56 213.02 667.00 196.00
C 672.67 196.00 678.33 196.00 684.00 196.00
C 684.50 196.00 685.00 196.00 685.00 196.00
C 682.02 192.90 664.96 192.71 666.00 200.00 C 667.04 207.29 665.87 216.41 666.00 224.00 C 666.13 231.59 666.69 240.38 666.00 248.00 Z"/>
</g>
<g fill="#FAFBFB" fill-opacity="1.00" stroke="None">
<path d="
M 563.00 197.00 
C 558.62 193.15 549.18 197.81 544.00 196.00
C 535.21 223.84 523.86 250.95 516.00 279.00
C 522.00 279.00 528.00 279.00 534.00 279.00
C 535.57 272.95 538.03 267.18 539.00 261.00
C 548.33 261.00 557.67 261.00 567.00 261.00
C 569.34 266.14 569.25 271.94 572.08 276.92 C 574.92 281.89 586.02 277.52 591.00 279.00
C 587.92 270.06 585.34 259.89 581.78 251.22 C 578.21 242.56 576.18 232.14 571.98 224.02 C 567.77 215.91 568.58 203.86 563.00 197.00
M 560.00 241.00 
C 559.82 242.65 548.35 245.68 546.00 242.00
C 544.48 239.62 549.29 233.34 549.32 230.32 C 549.35 227.30 553.01 222.35 553.00 219.00
C 556.10 225.71 558.12 233.59 560.00 241.00 Z"/>
</g>
<g fill="#FCFDFD" fill-opacity="1.00" stroke="None">
<path d="
M 615.00 196.00 
C 609.00 196.00 603.00 196.00 597.00 196.00
C 597.00 223.67 597.00 251.33 597.00 279.00
C 603.00 279.00 609.00 279.00 615.00 279.00
C 614.75 272.20 615.33 264.74 615.00 258.00 C 614.67 251.26 615.64 243.49 615.00 237.00 C 614.36 230.51 616.37 221.91 615.00 216.00 C 613.63 210.09 618.21 200.58 615.00 196.00 Z"/>
</g>
<g fill="#FDFDFD" fill-opacity="1.00" stroke="None">
<path d="
M 648.00 278.00 
C 650.97 278.11 654.03 278.11 657.00 278.00
C 671.78 277.44 682.99 266.81 684.00 252.00
C 685.26 233.45 682.33 214.52 684.00 196.00
C 678.33 196.00 672.67 196.00 667.00 196.00
C 665.56 213.02 669.36 231.79 666.00 248.00
C 664.60 254.75 663.00 258.27 656.00 260.00
C 653.23 260.69 651.77 260.88 649.00 260.00
C 637.33 256.31 638.89 242.93 639.00 233.00 C 639.11 223.07 640.19 221.33 639.00 214.00 C 637.81 206.67 642.58 201.12 639.00 196.00
C 633.00 196.00 627.00 196.00 621.00 196.00
C 617.64 200.80 622.57 212.01 621.00 218.00 C 619.43 223.99 621.82 233.72 621.00 240.00 C 620.18 246.28 621.05 254.52 623.08 259.92 C 625.10 265.33 627.90 269.02 632.30 272.70 C 636.71 276.37 642.38 277.79 648.00 278.00 Z"/>
</g>
<g fill="#9FB0C5" fill-opacity="1.00" stroke="None">
<path d="
M 684.00 252.00 
C 686.93 235.66 686.56 213.26 685.00 196.00
C 685.00 196.00 684.50 196.00 684.00 196.00
C 682.33 214.52 685.26 233.45 684.00 252.00 Z"/>
</g>
<g fill="#7289AA" fill-opacity="1.00" stroke="None">
<path d="
M 718.00 209.00 
C 714.38 204.76 710.29 200.66 706.00 197.00
C 709.87 200.87 714.08 205.08 718.00 209.00 Z"/>
</g>
<g fill="#093169" fill-opacity="1.00" stroke="None">
<path d="
M 760.00 210.00 
C 759.54 216.05 769.43 218.59 771.00 211.00 C 772.57 203.42 763.49 206.48 760.00 210.00 Z"/>
</g>
<g fill="#EFF2F5" fill-opacity="1.00" stroke="None">
<path d="
M 793.00 215.00 
C 787.54 220.85 765.65 222.65 766.03 232.98 C 766.40 243.30 775.72 254.47 780.00 263.00
C 777.56 268.62 779.87 274.55 781.00 280.00
C 789.64 281.34 793.65 275.77 802.33 276.33 C 811.00 276.89 816.16 268.76 806.07 269.07 C 795.99 269.38 794.65 273.72 785.00 273.00
C 783.17 265.36 791.21 263.64 794.23 258.23 C 797.25 252.81 795.49 246.38 791.00 242.00
C 783.50 245.47 794.38 257.85 783.00 260.00
C 781.34 252.14 769.79 238.78 773.31 231.31 C 776.82 223.83 800.47 227.09 793.00 215.00 Z"/>
</g>
<g fill="#062F68" fill-opacity="1.00" stroke="None">
<path d="
M 546.00 242.00 
C 549.33 240.61 557.88 244.30 560.00 241.00
C 558.12 233.59 556.10 225.71 553.00 219.00
C 553.01 222.35 549.35 227.30 549.32 230.32 C 549.29 233.34 544.48 239.62 546.00 242.00 Z"/>
</g>
<g fill="#E4E8EE" fill-opacity="1.00" stroke="None">
<path d="
M 448.00 225.00 
C 443.93 222.21 440.82 224.44 440.00 229.00
C 444.36 231.85 446.63 229.52 448.00 225.00 Z"/>
</g>
<g fill="#E3E7EE" fill-opacity="1.00" stroke="None">
<path d="
M 440.00 230.00 
C 437.50 230.96 437.44 234.08 436.00 236.00
C 441.00 241.06 446.62 232.23 440.00 230.00 Z"/>
</g>
<g fill="#45648E" fill-opacity="1.00" stroke="None">
<path d="
M 546.00 242.00 
C 548.35 245.68 559.82 242.65 560.00 241.00
C 557.88 244.30 549.33 240.61 546.00 242.00 Z"/>
</g>
<g fill="#E5E9EF" fill-opacity="1.00" stroke="None">
<path d="
M 772.00 257.00 
C 772.58 252.70 769.08 248.81 765.00 252.00
C 766.18 256.21 767.26 258.69 772.00 257.00 Z"/>
</g>
<g fill="#748BAA" fill-opacity="1.00" stroke="None">
<path d="
M 656.00 260.00 
C 653.95 260.24 651.04 260.34 649.00 260.00
C 651.77 260.88 653.23 260.69 656.00 260.00 Z"/>
</g>
<g fill="#EBEEF3" fill-opacity="1.00" stroke="None">
<path d="
M 395.00 271.00 
C 381.87 269.29 395.14 284.35 395.00 271.00 Z"/>
</g>
<g fill="#90A3BD" fill-opacity="1.00" stroke="None">
<path d="
M 657.00 278.00 
C 654.03 278.11 650.97 278.11 648.00 278.00
C 651.02 278.43 653.92 278.44 657.00 278.00 Z"/>
</g>
<g fill="#DBE1EA" fill-opacity="1.00" stroke="None">
<path d="
M 393.00 279.00 
C 379.11 278.44 395.94 293.69 393.00 279.00 Z"/>
</g>
<g fill="#EBEFF3" fill-opacity="1.00" stroke="None">
<path d="
M 816.00 288.00 
C 816.04 285.86 815.29 283.41 814.00 282.00
C 808.41 283.31 801.50 283.67 796.00 285.00 C 790.50 286.33 780.79 283.19 783.00 292.00
C 794.29 291.78 805.11 289.72 816.00 288.00 Z"/>
</g>
<g fill="#F9FAFB" fill-opacity="1.00" stroke="None">
<path d="
M 596.00 434.00 
C 598.60 434.14 601.40 434.18 604.00 434.00
C 615.34 432.37 619.58 423.21 632.00 425.00 C 644.42 426.79 656.62 424.07 669.00 425.00 C 681.38 425.93 693.63 424.30 706.00 425.00
C 706.00 382.33 706.00 339.67 706.00 297.00
C 700.33 297.00 694.67 297.00 689.00 297.00
C 689.00 293.67 689.00 290.33 689.00 287.00
C 672.62 286.28 651.96 287.96 636.00 287.00 C 620.04 286.04 606.15 291.17 605.00 308.00
C 602.54 344.17 606.85 380.79 605.00 417.00
C 606.73 409.87 614.26 407.46 621.00 407.00
C 642.49 403.15 666.69 407.80 689.00 406.00
C 689.00 372.33 689.00 338.67 689.00 305.00
C 692.00 305.00 695.00 305.00 698.00 305.00
C 698.00 342.33 698.00 379.67 698.00 417.00
C 670.00 417.00 642.00 417.00 614.00 417.00
C 612.26 429.90 588.29 429.73 586.00 417.00
C 558.00 417.00 530.00 417.00 502.00 417.00
C 502.00 379.67 502.00 342.33 502.00 305.00
C 505.00 305.00 508.00 305.00 511.00 305.00
C 511.11 311.78 510.85 319.29 511.00 326.00 C 511.15 332.71 510.70 339.48 511.00 346.00 C 511.30 352.52 510.36 359.75 511.00 366.00 C 511.64 372.25 509.58 380.31 511.00 386.00 C 512.42 391.69 507.86 401.52 511.00 406.00
C 533.30 407.79 557.59 403.16 579.00 407.00
C 585.76 407.46 593.25 409.83 595.00 417.00
C 593.16 380.79 597.46 344.17 595.00 308.00
C 594.11 290.67 578.81 285.96 563.00 287.00 C 547.19 288.04 527.19 286.22 511.00 287.00
C 511.00 290.33 511.00 293.67 511.00 297.00
C 505.33 297.00 499.67 297.00 494.00 297.00
C 494.00 339.67 494.00 382.33 494.00 425.00
C 506.35 424.00 518.64 426.34 531.00 425.00 C 543.36 423.66 555.62 427.56 568.00 425.00 C 580.38 422.44 585.11 433.41 596.00 434.00
M 552.00 290.00 
C 553.31 294.06 549.38 298.70 551.00 303.00
C 559.54 304.88 554.13 295.49 555.00 291.00
C 555.52 288.29 557.42 288.53 558.00 291.00
C 559.74 293.56 557.07 300.17 557.00 303.00
C 557.25 302.75 558.50 303.01 559.00 303.00
C 560.33 302.99 561.67 303.01 563.00 303.00
C 563.64 305.03 561.31 305.06 560.00 305.00
C 559.03 305.11 557.97 305.00 557.00 305.00
C 552.38 305.00 547.36 305.77 544.00 305.00
C 542.99 300.70 547.68 303.83 550.00 302.00
C 548.68 298.62 549.00 294.73 549.00 291.00
C 549.33 289.58 551.23 287.61 552.00 290.00
M 577.00 300.00 
C 576.83 302.55 576.30 304.49 576.00 307.00
C 574.61 306.74 575.22 304.95 575.00 304.00
C 574.22 298.92 575.54 293.60 573.00 289.00
C 582.20 286.65 575.15 294.61 577.00 300.00
M 632.00 291.00 
C 629.74 295.66 627.48 301.12 624.00 305.00
C 626.25 300.43 624.91 288.75 632.00 291.00
M 669.00 294.00 
C 670.63 294.25 672.36 293.81 674.00 294.00
C 673.40 296.31 670.87 296.03 669.00 296.00
C 665.93 296.51 662.95 296.03 660.00 297.00
C 658.59 290.27 665.51 294.77 669.00 294.00
M 622.00 302.00 
C 622.20 305.89 618.04 299.32 617.00 297.00
C 618.25 296.70 618.71 295.17 620.00 295.00
C 621.88 293.24 621.87 299.44 622.00 302.00
M 676.00 302.00 
C 672.73 299.34 672.96 296.67 676.00 294.00
C 676.53 295.79 676.76 300.25 676.00 302.00
M 536.00 297.00 
C 537.65 297.17 539.35 296.87 541.00 297.00
C 541.63 299.53 538.47 298.90 537.00 299.00
C 531.32 300.02 526.24 298.82 521.00 300.00
C 520.58 292.67 530.82 298.85 536.00 297.00
M 639.00 300.00 
C 638.47 299.93 636.46 297.21 639.00 296.00
C 639.57 295.73 642.01 298.05 643.00 297.00
C 643.53 299.53 640.25 298.75 639.00 300.00
M 648.00 297.00 
C 645.78 303.56 640.77 294.30 648.00 297.00
M 654.00 297.00 
C 650.83 303.58 645.43 294.20 654.00 297.00
M 673.00 301.00 
C 669.45 301.24 658.88 305.88 660.00 299.00
C 663.94 301.17 669.00 299.00 673.00 301.00
M 549.00 322.00 
C 549.00 322.38 549.25 324.77 549.00 325.00
C 550.56 325.22 551.38 323.69 553.00 324.00
C 554.99 319.52 548.54 310.10 556.00 311.00
C 555.67 315.06 551.64 322.91 556.00 325.00
C 556.02 322.52 556.76 324.15 557.00 324.00
C 561.84 321.00 552.73 309.37 562.00 311.00
C 560.25 315.52 558.78 321.29 561.00 326.00
C 559.46 325.63 558.60 327.43 557.00 327.00
C 556.27 327.11 556.01 328.13 556.00 326.00
C 552.50 327.35 549.49 325.42 546.00 327.00
C 545.72 325.51 546.02 323.62 548.00 324.00
C 547.51 322.89 547.18 321.27 547.00 320.00
C 546.58 317.00 547.86 313.61 546.00 311.00
C 553.15 309.73 547.36 318.02 549.00 322.00
M 622.00 314.00 
C 621.84 314.44 621.91 315.51 622.00 316.00
C 623.59 316.34 625.39 315.74 627.00 316.00
C 624.79 319.91 626.06 325.43 624.00 329.00
C 624.62 325.42 622.38 322.60 623.00 319.00
C 622.73 318.32 619.69 315.93 620.00 315.00
C 619.54 314.68 620.15 311.44 619.00 311.00
C 621.86 310.53 623.30 311.17 622.00 314.00
M 630.00 311.00 
C 628.73 318.59 623.18 309.47 630.00 311.00
M 532.00 317.00 
C 525.02 312.76 535.41 309.33 532.00 317.00
M 584.00 314.00 
C 579.02 316.06 572.21 314.54 567.00 317.00
C 565.68 307.76 578.44 315.54 584.00 314.00
M 648.00 317.00 
C 648.25 317.25 648.00 318.00 648.00 318.00
C 648.00 319.66 648.05 321.34 648.00 323.00
C 647.95 324.87 648.60 324.94 646.00 323.00
C 645.05 322.29 644.05 321.48 643.00 321.00
C 643.67 319.80 644.64 318.42 646.00 318.00
C 646.27 317.83 646.65 317.03 647.00 317.00
C 648.46 315.35 649.16 314.88 648.00 317.00
M 676.00 317.00 
C 671.69 319.11 665.45 317.16 661.00 320.00
C 659.38 311.06 670.91 318.18 676.00 317.00
M 533.00 318.00 
C 532.58 325.09 527.03 317.72 533.00 318.00
M 584.00 320.00 
C 579.02 322.06 572.21 320.54 567.00 323.00
C 565.68 313.76 578.44 321.54 584.00 320.00
M 676.00 323.00 
C 671.68 325.03 665.61 323.81 661.00 326.00
C 659.41 316.85 670.84 324.60 676.00 323.00
M 533.00 323.00 
C 532.66 330.72 525.88 321.31 533.00 323.00
M 584.00 326.00 
C 579.06 328.21 572.29 326.92 567.00 329.00
C 565.62 319.72 578.47 328.15 584.00 326.00
M 556.00 333.00 
C 553.81 337.99 555.34 345.72 553.00 352.00
C 554.15 344.79 547.20 332.50 556.00 333.00
M 577.00 342.00 
C 577.02 340.98 574.62 347.54 575.00 347.00
C 573.97 348.46 573.97 347.61 573.00 347.00
C 569.70 344.94 574.91 342.95 570.00 343.00
C 569.47 341.56 570.32 337.37 572.00 340.00
C 572.45 340.15 573.53 340.12 574.00 340.00
C 574.35 339.91 575.08 339.27 575.00 339.00
C 574.17 336.05 573.90 334.33 578.00 335.00
C 576.10 339.33 577.77 340.44 581.00 337.00
C 580.75 339.49 577.53 341.42 580.00 344.00
C 577.99 344.82 578.53 342.18 577.00 342.00
M 624.00 335.00 
C 621.75 339.57 623.11 345.77 621.00 350.00
C 621.68 345.07 615.50 333.27 624.00 335.00
M 630.00 335.00 
C 627.75 339.57 629.11 345.77 627.00 350.00
C 628.11 344.99 621.26 333.31 630.00 335.00
M 524.00 338.00 
C 524.58 338.16 526.59 338.74 527.00 339.00
C 527.80 337.37 528.23 337.90 529.00 338.00
C 530.24 338.16 531.47 339.71 533.00 339.00
C 532.51 340.84 530.65 341.18 529.00 341.00
C 528.50 341.03 527.72 341.47 527.00 340.00
C 526.53 340.85 524.23 340.60 524.00 341.00
C 524.15 341.45 524.16 342.56 524.00 343.00
C 526.16 345.12 531.30 343.35 534.00 344.00
C 532.82 338.84 536.14 341.28 539.00 342.00
C 536.18 343.46 534.02 344.40 538.00 346.00
C 532.79 345.82 527.77 346.47 523.00 348.00
C 521.80 345.31 520.38 337.01 524.00 338.00
M 652.00 337.00 
C 649.64 340.55 649.71 344.42 652.00 348.00
C 649.59 346.89 648.38 344.04 646.00 343.00
C 647.57 340.72 649.67 338.43 652.00 337.00
M 665.00 341.00 
C 658.56 343.90 661.65 334.67 665.00 341.00
M 669.00 339.00 
C 669.69 337.57 671.94 340.95 672.00 341.00
C 673.20 341.86 674.51 342.14 676.00 342.00
C 675.56 343.29 674.41 344.21 673.00 344.00
C 671.60 345.16 671.94 345.44 670.00 346.00
C 668.68 346.39 667.42 346.83 666.00 347.00
C 665.53 344.14 666.17 342.70 669.00 344.00
C 669.21 342.71 671.54 343.86 670.00 341.00
C 669.80 341.37 666.53 341.84 666.00 342.00
C 665.53 339.14 666.17 337.70 669.00 339.00
M 641.00 341.00 
C 642.53 340.59 643.41 342.46 645.00 342.00
C 644.16 343.10 642.54 344.04 641.00 344.00
C 639.77 347.09 639.75 337.85 641.00 341.00
M 665.00 346.00 
C 658.56 348.90 661.65 339.67 665.00 346.00
M 553.00 357.00 
C 552.39 365.10 545.86 355.49 553.00 357.00
M 556.00 361.00 
C 557.66 361.82 557.01 362.31 557.00 363.00
C 556.99 363.96 556.88 365.05 557.00 366.00
C 557.25 367.95 557.59 367.32 557.00 369.00
C 556.63 370.05 556.71 371.89 555.00 372.00
C 555.41 370.44 554.54 369.31 554.00 368.00
C 553.18 368.16 552.88 368.88 552.00 369.00
C 551.55 369.73 552.36 371.22 552.00 372.00
C 549.97 372.64 549.94 370.31 550.00 369.00
C 549.47 367.33 549.75 367.98 550.00 366.00
C 550.06 365.52 549.69 363.31 550.00 363.00
C 548.67 362.08 553.90 361.52 555.00 361.00
C 553.67 358.27 554.57 356.03 558.00 357.00
C 556.63 358.05 557.77 360.44 556.00 361.00
M 632.00 358.00 
C 629.96 362.79 627.05 367.87 624.00 372.00
C 626.17 367.54 625.08 355.47 632.00 358.00
M 649.00 360.00 
C 649.73 360.05 652.41 359.64 654.00 360.00
C 652.95 361.43 650.90 362.23 649.00 362.00
C 647.94 365.20 648.03 367.85 650.00 371.00
C 647.18 368.80 641.79 365.42 646.00 362.00
C 641.95 362.05 637.50 364.30 639.00 358.00
C 642.06 359.60 645.41 360.32 649.00 360.00
M 577.00 360.00 
C 578.76 360.25 580.52 359.74 582.00 361.00
C 581.47 362.60 579.25 361.72 578.00 362.00
C 574.80 362.69 567.45 364.69 569.00 359.00
C 571.27 360.72 574.34 359.73 577.00 360.00
M 534.00 360.00 
C 531.21 364.00 532.46 365.67 536.00 362.00
C 536.48 370.67 530.82 363.81 526.00 368.00
C 524.86 363.40 527.99 364.46 531.00 365.00
C 529.37 361.42 528.72 358.94 534.00 360.00
M 622.00 369.00 
C 622.20 372.89 618.04 366.32 617.00 364.00
C 618.25 363.70 618.71 362.17 620.00 362.00
C 621.88 360.24 621.87 366.44 622.00 369.00
M 673.00 364.00 
C 673.94 364.24 675.05 363.81 676.00 364.00
C 676.64 366.03 674.31 366.06 673.00 366.00
C 669.49 367.06 665.18 365.60 662.00 368.00
C 659.64 358.67 667.84 365.46 673.00 364.00
M 581.00 364.00 
C 578.78 370.56 573.78 361.30 581.00 364.00
M 579.00 368.00 
C 580.30 368.37 582.51 367.54 582.00 370.00
C 580.67 370.00 579.33 370.00 578.00 370.00
C 575.00 370.45 571.61 369.12 569.00 371.00
C 567.67 363.91 575.29 369.19 579.00 368.00
M 618.00 378.00 
C 622.30 376.44 626.66 380.17 631.00 379.00
C 627.30 380.48 622.40 380.86 618.00 381.00
C 616.78 384.09 616.75 374.85 618.00 378.00
M 654.00 379.00 
C 654.52 382.35 652.69 387.23 652.00 390.00
C 651.81 385.89 651.31 381.82 650.00 378.00
C 649.51 378.06 649.00 378.00 649.00 378.00
C 646.44 381.17 647.93 387.23 647.00 391.00
C 645.11 387.73 646.39 382.76 645.00 379.00
C 644.54 379.14 643.43 379.17 643.00 379.00
C 641.57 380.45 642.35 384.13 642.00 386.00
C 641.68 387.73 642.31 389.55 641.00 391.00
C 639.40 390.47 640.28 388.25 640.00 387.00
C 639.71 385.20 638.82 380.46 639.00 379.00
C 639.40 375.71 653.52 375.87 654.00 379.00
M 533.00 380.00 
C 533.48 383.39 531.53 387.20 532.00 391.00
C 532.09 391.75 531.84 392.89 533.00 393.00
C 533.46 388.23 536.54 384.06 536.00 379.00
C 545.44 380.12 534.66 387.90 534.00 393.00
C 533.57 393.83 533.09 395.91 532.00 396.00
C 530.47 396.13 529.97 391.95 530.00 391.00
C 530.01 390.50 530.00 390.00 530.00 390.00
C 530.32 386.58 528.00 382.00 529.00 379.00
C 529.31 379.13 532.50 376.45 533.00 380.00
M 562.00 379.00 
C 560.52 384.12 560.49 389.61 560.00 395.00
C 557.41 390.50 559.04 383.97 557.00 379.00
C 556.50 379.00 556.00 379.00 556.00 379.00
C 552.87 382.87 554.94 390.37 554.00 395.00
C 551.89 390.37 553.12 383.95 551.00 379.00
C 550.50 379.00 550.00 379.00 550.00 379.00
C 546.93 382.80 549.39 390.53 548.00 395.00
C 545.70 390.42 547.02 383.97 545.00 379.00
C 545.61 377.00 558.90 377.59 562.00 379.00
M 583.00 379.00 
C 581.96 383.99 580.55 390.07 581.00 396.00
C 579.29 392.35 580.00 387.19 579.00 383.00
C 574.38 381.46 564.98 386.94 567.00 379.00
C 573.59 382.23 577.64 380.02 583.00 379.00
M 671.00 383.00 
C 671.21 384.08 670.82 384.51 672.00 385.00
C 672.52 384.90 673.67 382.40 674.00 382.00
C 675.27 381.60 678.88 384.15 677.00 385.00
C 676.78 387.89 679.76 387.61 677.00 388.00
C 672.46 388.65 673.64 387.64 673.00 387.00
C 673.72 386.96 669.64 385.50 670.00 386.00
C 669.87 387.64 670.25 389.38 670.00 391.00
C 669.85 391.98 670.12 393.02 670.00 394.00
C 668.59 394.51 667.85 393.19 668.00 392.00
C 667.57 391.73 668.05 387.63 668.00 387.00
C 667.00 385.22 665.32 387.07 665.00 387.00
C 666.26 388.59 665.23 387.69 665.00 389.00
C 664.82 389.99 664.82 390.61 666.00 392.00
C 664.33 392.00 662.67 392.00 661.00 392.00
C 659.35 391.10 660.55 390.85 661.00 390.00
C 661.10 389.81 661.94 388.03 662.00 388.00
C 661.07 387.98 660.17 389.64 659.00 389.00
C 661.29 386.45 658.28 382.81 664.00 382.00
C 664.30 383.25 665.83 383.71 666.00 385.00
C 666.30 385.05 667.05 384.30 667.00 384.00
C 666.75 382.55 667.00 381.23 666.00 380.00
C 668.35 379.84 671.92 379.45 671.00 383.00
M 526.00 384.00 
C 525.89 386.99 526.86 389.27 527.00 392.00
C 527.22 396.34 521.66 387.97 522.00 387.00
C 522.43 385.77 523.81 384.40 525.00 384.00
C 525.98 383.15 526.40 381.15 528.00 381.00
C 528.27 382.28 527.23 383.72 526.00 384.00
M 631.00 385.00 
C 627.05 387.20 621.04 384.90 617.00 388.00
C 615.28 379.13 626.09 386.19 631.00 385.00
M 627.00 390.00 
C 628.30 390.19 629.69 389.85 631.00 390.00
C 631.63 392.53 628.47 391.90 627.00 392.00
C 625.67 392.08 624.33 391.95 623.00 392.00
C 622.78 392.13 623.00 393.00 623.00 393.00
C 623.79 394.49 623.49 394.98 623.00 397.00
C 621.71 396.56 620.79 395.42 621.00 394.00
C 620.74 394.02 619.24 393.13 619.00 393.00
C 617.36 392.07 616.39 391.72 617.00 389.00
C 620.08 390.17 623.58 390.09 627.00 390.00
M 678.00 391.00 
C 676.83 391.03 673.16 392.34 672.00 391.00
C 673.72 389.06 676.58 388.54 678.00 391.00
M 655.00 394.00 
C 649.42 392.42 636.74 400.31 638.00 391.00
C 643.09 393.83 650.14 391.81 655.00 394.00
M 593.00 409.00 
C 569.34 398.40 540.03 406.58 514.00 404.00
C 515.37 395.98 522.74 398.95 532.00 399.00 C 541.26 399.05 544.48 398.03 556.00 399.00 C 567.52 399.97 588.48 394.35 593.00 409.00
M 686.00 399.00 
C 684.84 408.10 670.65 403.15 662.00 404.00 C 653.35 404.85 640.93 403.61 632.00 404.00 C 623.07 404.39 614.12 403.12 607.00 409.00
C 612.74 395.57 627.64 399.41 641.00 399.00 C 654.36 398.59 672.23 399.30 686.00 399.00 Z"/>
</g>
<g fill="#5C779B" fill-opacity="1.00" stroke="None">
<path d="
M 549.00 291.00 
C 549.69 289.87 550.71 290.01 552.00 290.00
C 551.23 287.61 549.33 289.58 549.00 291.00 Z"/>
</g>
<g fill="#617BA0" fill-opacity="1.00" stroke="None">
<path d="
M 555.00 291.00 
C 555.87 289.70 557.14 289.73 558.00 291.00
C 557.42 288.53 555.52 288.29 555.00 291.00 Z"/>
</g>
<g fill="#1A3F73" fill-opacity="1.00" stroke="None">
<path d="
M 575.00 304.00 
C 575.13 303.20 576.86 300.76 577.00 300.00
C 575.15 294.61 582.20 286.65 573.00 289.00
C 575.54 293.60 574.22 298.92 575.00 304.00 Z"/>
</g>
<g fill="#12376E" fill-opacity="1.00" stroke="None">
<path d="
M 549.00 291.00 
C 549.00 294.73 548.68 298.62 550.00 302.00
C 547.68 303.83 542.99 300.70 544.00 305.00
C 547.36 305.77 552.38 305.00 557.00 305.00
C 557.13 304.97 556.99 303.50 557.00 303.00
C 557.07 300.17 559.74 293.56 558.00 291.00
C 557.14 289.73 555.87 289.70 555.00 291.00
C 554.13 295.49 559.54 304.88 551.00 303.00
C 549.38 298.70 553.31 294.06 552.00 290.00
C 550.71 290.01 549.69 289.87 549.00 291.00 Z"/>
</g>
<g fill="#214477" fill-opacity="1.00" stroke="None">
<path d="
M 632.00 291.00 
C 624.91 288.75 626.25 300.43 624.00 305.00
C 627.48 301.12 629.74 295.66 632.00 291.00 Z"/>
</g>
<g fill="#12376E" fill-opacity="1.00" stroke="None">
<path d="
M 669.00 296.00 
C 669.14 295.96 669.16 294.06 669.00 294.00
C 665.51 294.77 658.59 290.27 660.00 297.00
C 662.95 296.03 665.93 296.51 669.00 296.00 Z"/>
</g>
<g fill="#143970" fill-opacity="1.00" stroke="None">
<path d="
M 620.00 295.00 
C 616.15 298.60 620.10 299.35 622.00 302.00
C 621.87 299.44 621.88 293.24 620.00 295.00 Z"/>
</g>
<g fill="#5C779C" fill-opacity="1.00" stroke="None">
<path d="
M 669.00 296.00 
C 670.87 296.03 673.40 296.31 674.00 294.00
C 672.36 293.81 670.63 294.25 669.00 294.00
C 669.16 294.06 669.14 295.96 669.00 296.00 Z"/>
</g>
<g fill="#0E356C" fill-opacity="1.00" stroke="None">
<path d="
M 676.00 302.00 
C 676.76 300.25 676.53 295.79 676.00 294.00
C 672.96 296.67 672.73 299.34 676.00 302.00 Z"/>
</g>
<g fill="#738BAA" fill-opacity="1.00" stroke="None">
<path d="
M 622.00 302.00 
C 620.10 299.35 616.15 298.60 620.00 295.00
C 618.71 295.17 618.25 296.70 617.00 297.00
C 618.04 299.32 622.20 305.89 622.00 302.00 Z"/>
</g>
<g fill="#234679" fill-opacity="1.00" stroke="None">
<path d="
M 537.00 299.00 
C 536.59 298.85 536.26 297.12 536.00 297.00
C 530.82 298.85 520.58 292.67 521.00 300.00
C 526.24 298.82 531.32 300.02 537.00 299.00 Z"/>
</g>
<g fill="#B4C0D1" fill-opacity="1.00" stroke="None">
<path d="
M 639.00 300.00 
C 639.31 298.74 638.76 297.27 639.00 296.00
C 636.46 297.21 638.47 299.93 639.00 300.00 Z"/>
</g>
<g fill="#274A7B" fill-opacity="1.00" stroke="None">
<path d="
M 639.00 300.00 
C 640.25 298.75 643.53 299.53 643.00 297.00
C 642.01 298.05 639.57 295.73 639.00 296.00
C 638.76 297.27 639.31 298.74 639.00 300.00 Z"/>
</g>
<g fill="#193F73" fill-opacity="1.00" stroke="None">
<path d="
M 648.00 297.00 
C 640.77 294.30 645.78 303.56 648.00 297.00 Z"/>
</g>
<g fill="#385886" fill-opacity="1.00" stroke="None">
<path d="
M 654.00 297.00 
C 645.43 294.20 650.83 303.58 654.00 297.00 Z"/>
</g>
<g fill="#9AAAC1" fill-opacity="1.00" stroke="None">
<path d="
M 537.00 299.00 
C 538.47 298.90 541.63 299.53 541.00 297.00
C 539.35 296.87 537.65 297.17 536.00 297.00
C 536.26 297.12 536.59 298.85 537.00 299.00 Z"/>
</g>
<g fill="#13386F" fill-opacity="1.00" stroke="None">
<path d="
M 673.00 301.00 
C 669.00 299.00 663.94 301.17 660.00 299.00
C 658.88 305.88 669.45 301.24 673.00 301.00 Z"/>
</g>
<g fill="#8498B4" fill-opacity="1.00" stroke="None">
<path d="
M 575.00 304.00 
C 575.22 304.95 574.61 306.74 576.00 307.00
C 576.30 304.49 576.83 302.55 577.00 300.00
C 576.86 300.76 575.13 303.20 575.00 304.00 Z"/>
</g>
<g fill="#7189AA" fill-opacity="1.00" stroke="None">
<path d="
M 358.00 307.00 
C 358.17 305.82 358.93 303.84 359.00 302.00
C 358.83 303.18 358.07 305.16 358.00 307.00 Z"/>
</g>
<g fill="#7189AA" fill-opacity="1.00" stroke="None">
<path d="
M 842.00 307.00 
C 841.93 305.19 841.17 303.20 841.00 302.00
C 841.07 303.81 841.83 305.80 842.00 307.00 Z"/>
</g>
<g fill="#4A6790" fill-opacity="1.00" stroke="None">
<path d="
M 557.00 305.00 
C 557.97 305.00 559.03 305.11 560.00 305.00
C 559.62 304.89 559.22 303.09 559.00 303.00
C 558.50 303.01 557.25 302.75 557.00 303.00
C 556.99 303.50 557.13 304.97 557.00 305.00 Z"/>
</g>
<g fill="#9FAFC4" fill-opacity="1.00" stroke="None">
<path d="
M 560.00 305.00 
C 561.31 305.06 563.64 305.03 563.00 303.00
C 561.67 303.01 560.33 302.99 559.00 303.00
C 559.22 303.09 559.62 304.89 560.00 305.00 Z"/>
</g>
<g fill="#92A5BD" fill-opacity="1.00" stroke="None">
<path d="
M 766.00 326.00 
C 766.66 319.15 766.67 310.92 766.00 304.00
C 766.00 311.33 766.00 318.67 766.00 326.00 Z"/>
</g>
<g fill="#91A4BC" fill-opacity="1.00" stroke="None">
<path d="
M 595.00 417.00 
C 593.29 382.41 601.17 342.46 595.00 308.00
C 597.46 344.17 593.16 380.79 595.00 417.00 Z"/>
</g>
<g fill="#91A4BC" fill-opacity="1.00" stroke="None">
<path d="
M 605.00 417.00 
C 606.85 380.79 602.54 344.17 605.00 308.00
C 598.84 342.39 606.70 382.34 605.00 417.00 Z"/>
</g>
<g fill="#7D93B1" fill-opacity="1.00" stroke="None">
<path d="
M 758.00 325.00 
C 758.61 319.97 758.49 314.07 758.00 309.00
C 758.00 314.33 758.11 319.67 758.00 325.00 Z"/>
</g>
<g fill="#11376D" fill-opacity="1.00" stroke="None">
<path d="
M 547.00 320.00 
C 547.14 320.40 548.91 321.68 549.00 322.00
C 547.36 318.02 553.15 309.73 546.00 311.00
C 547.86 313.61 546.58 317.00 547.00 320.00 Z"/>
</g>
<g fill="#153B70" fill-opacity="1.00" stroke="None">
<path d="
M 549.00 325.00 
C 548.65 324.95 548.15 324.34 548.00 324.00
C 546.02 323.62 545.72 325.51 546.00 327.00
C 549.49 325.42 552.50 327.35 556.00 326.00
C 556.00 325.50 556.00 325.00 556.00 325.00
C 551.64 322.91 555.67 315.06 556.00 311.00
C 548.54 310.10 554.99 319.52 553.00 324.00
C 551.38 323.69 550.56 325.22 549.00 325.00 Z"/>
</g>
<g fill="#1E4276" fill-opacity="1.00" stroke="None">
<path d="
M 557.00 324.00 
C 557.16 324.64 557.16 326.36 557.00 327.00
C 558.60 327.43 559.46 325.63 561.00 326.00
C 558.78 321.29 560.25 315.52 562.00 311.00
C 552.73 309.37 561.84 321.00 557.00 324.00 Z"/>
</g>
<g fill="#204376" fill-opacity="1.00" stroke="None">
<path d="
M 620.00 315.00 
C 620.12 314.65 621.69 314.10 622.00 314.00
C 623.30 311.17 621.86 310.53 619.00 311.00
C 620.15 311.44 619.54 314.68 620.00 315.00 Z"/>
</g>
<g fill="#1C4074" fill-opacity="1.00" stroke="None">
<path d="
M 630.00 311.00 
C 623.18 309.47 628.73 318.59 630.00 311.00 Z"/>
</g>
<g fill="#42608D" fill-opacity="1.00" stroke="None">
<path d="
M 532.00 317.00 
C 535.41 309.33 525.02 312.76 532.00 317.00 Z"/>
</g>
<g fill="#193E73" fill-opacity="1.00" stroke="None">
<path d="
M 584.00 314.00 
C 578.44 315.54 565.68 307.76 567.00 317.00
C 572.21 314.54 579.02 316.06 584.00 314.00 Z"/>
</g>
<g fill="#A6B5C9" fill-opacity="1.00" stroke="None">
<path d="
M 620.00 315.00 
C 619.69 315.93 622.73 318.32 623.00 319.00
C 622.80 317.86 622.19 317.10 622.00 316.00
C 621.91 315.51 621.84 314.44 622.00 314.00
C 621.69 314.10 620.12 314.65 620.00 315.00 Z"/>
</g>
<g fill="#547198" fill-opacity="1.00" stroke="None">
<path d="
M 647.00 317.00 
C 647.50 316.95 648.00 317.00 648.00 317.00
C 649.16 314.88 648.46 315.35 647.00 317.00 Z"/>
</g>
<g fill="#1C4074" fill-opacity="1.00" stroke="None">
<path d="
M 676.00 317.00 
C 670.91 318.18 659.38 311.06 661.00 320.00
C 665.45 317.16 671.69 319.11 676.00 317.00 Z"/>
</g>
<g fill="#10376E" fill-opacity="1.00" stroke="None">
<path d="
M 623.00 319.00 
C 622.38 322.60 624.62 325.42 624.00 329.00
C 626.06 325.43 624.79 319.91 627.00 316.00
C 625.39 315.74 623.59 316.34 622.00 316.00
C 622.19 317.10 622.80 317.86 623.00 319.00 Z"/>
</g>
<g fill="#1E4176" fill-opacity="1.00" stroke="None">
<path d="
M 646.00 318.00 
C 644.11 319.96 644.28 321.02 646.00 323.00
C 648.60 324.94 647.95 324.87 648.00 323.00
C 647.95 321.17 646.13 320.13 648.00 318.00
C 648.00 318.00 648.25 317.25 648.00 317.00
C 648.00 317.00 647.50 316.95 647.00 317.00
C 646.65 317.03 646.27 317.83 646.00 318.00 Z"/>
</g>
<g fill="#153B70" fill-opacity="1.00" stroke="None">
<path d="
M 533.00 318.00 
C 527.03 317.72 532.58 325.09 533.00 318.00 Z"/>
</g>
<g fill="#183C72" fill-opacity="1.00" stroke="None">
<path d="
M 584.00 320.00 
C 578.44 321.54 565.68 313.76 567.00 323.00
C 572.21 320.54 579.02 322.06 584.00 320.00 Z"/>
</g>
<g fill="#6881A4" fill-opacity="1.00" stroke="None">
<path d="
M 646.00 323.00 
C 644.28 321.02 644.11 319.96 646.00 318.00
C 644.64 318.42 643.67 319.80 643.00 321.00
C 644.05 321.48 645.05 322.29 646.00 323.00 Z"/>
</g>
<g fill="#8195B2" fill-opacity="1.00" stroke="None">
<path d="
M 648.00 323.00 
C 648.05 321.34 648.00 319.66 648.00 318.00
C 646.13 320.13 647.95 321.17 648.00 323.00 Z"/>
</g>
<g fill="#7088A9" fill-opacity="1.00" stroke="None">
<path d="
M 548.00 324.00 
C 548.15 324.34 548.65 324.95 549.00 325.00
C 549.25 324.77 549.00 322.38 549.00 322.00
C 548.91 321.68 547.14 320.40 547.00 320.00
C 547.18 321.27 547.51 322.89 548.00 324.00 Z"/>
</g>
<g fill="#1C4074" fill-opacity="1.00" stroke="None">
<path d="
M 676.00 323.00 
C 670.84 324.60 659.41 316.85 661.00 326.00
C 665.61 323.81 671.68 325.03 676.00 323.00 Z"/>
</g>
<g fill="#7188AA" fill-opacity="1.00" stroke="None">
<path d="
M 359.00 328.00 
C 358.93 326.19 358.17 324.20 358.00 323.00
C 358.07 324.81 358.83 326.80 359.00 328.00 Z"/>
</g>
<g fill="#0F366D" fill-opacity="1.00" stroke="None">
<path d="
M 533.00 323.00 
C 525.88 321.31 532.66 330.72 533.00 323.00 Z"/>
</g>
<g fill="#6C85A5" fill-opacity="1.00" stroke="None">
<path d="
M 556.00 325.00 
C 556.00 325.00 556.00 325.50 556.00 326.00
C 556.01 328.13 556.27 327.11 557.00 327.00
C 557.16 326.36 557.16 324.64 557.00 324.00
C 556.76 324.15 556.02 322.52 556.00 325.00 Z"/>
</g>
<g fill="#7188AA" fill-opacity="1.00" stroke="None">
<path d="
M 841.00 328.00 
C 841.17 326.82 841.93 324.84 842.00 323.00
C 841.83 324.18 841.07 326.16 841.00 328.00 Z"/>
</g>
<g fill="#153A70" fill-opacity="1.00" stroke="None">
<path d="
M 584.00 326.00 
C 578.47 328.15 565.62 319.72 567.00 329.00
C 572.29 326.92 579.06 328.21 584.00 326.00 Z"/>
</g>
<g fill="#224578" fill-opacity="1.00" stroke="None">
<path d="
M 556.00 333.00 
C 547.20 332.50 554.15 344.79 553.00 352.00
C 555.34 345.72 553.81 337.99 556.00 333.00 Z"/>
</g>
<g fill="#3E5D8A" fill-opacity="1.00" stroke="None">
<path d="
M 575.00 339.00 
C 576.62 338.52 576.67 341.53 577.00 342.00
C 578.53 342.18 577.99 344.82 580.00 344.00
C 577.53 341.42 580.75 339.49 581.00 337.00
C 577.77 340.44 576.10 339.33 578.00 335.00
C 573.90 334.33 574.17 336.05 575.00 339.00 Z"/>
</g>
<g fill="#1C4075" fill-opacity="1.00" stroke="None">
<path d="
M 624.00 335.00 
C 615.50 333.27 621.68 345.07 621.00 350.00
C 623.11 345.77 621.75 339.57 624.00 335.00 Z"/>
</g>
<g fill="#163B71" fill-opacity="1.00" stroke="None">
<path d="
M 630.00 335.00 
C 621.26 333.31 628.11 344.99 627.00 350.00
C 629.11 345.77 627.75 339.57 630.00 335.00 Z"/>
</g>
<g fill="#F0F2F5" fill-opacity="1.00" stroke="None">
<path d="
M 418.00 342.00 
C 406.27 340.55 394.49 339.31 383.00 337.00
C 381.56 344.48 388.57 344.67 394.00 345.00
C 394.08 348.66 397.13 355.88 392.08 357.08 C 387.02 358.27 385.72 361.61 388.00 366.00
C 394.24 363.35 400.64 359.80 406.77 356.77 C 412.90 353.74 422.17 350.27 418.00 342.00
M 411.00 348.00 
C 406.78 348.32 404.13 352.51 400.00 353.00
C 399.20 350.49 398.72 347.81 399.00 345.00
C 402.50 347.35 408.68 343.91 411.00 348.00 Z"/>
</g>
<g fill="#B3BFD1" fill-opacity="1.00" stroke="None">
<path d="
M 523.00 348.00 
C 522.26 346.02 523.53 344.30 524.00 343.00
C 524.16 342.56 524.15 341.45 524.00 341.00
C 523.77 340.30 521.85 338.60 524.00 338.00
C 520.38 337.01 521.80 345.31 523.00 348.00 Z"/>
</g>
<g fill="#567298" fill-opacity="1.00" stroke="None">
<path d="
M 527.00 339.00 
C 526.80 339.40 527.00 340.00 527.00 340.00
C 527.72 341.47 528.50 341.03 529.00 341.00
C 529.16 340.36 529.16 338.64 529.00 338.00
C 528.23 337.90 527.80 337.37 527.00 339.00 Z"/>
</g>
<g fill="#2B4D7E" fill-opacity="1.00" stroke="None">
<path d="
M 652.00 337.00 
C 649.67 338.43 647.57 340.72 646.00 343.00
C 648.38 344.04 649.59 346.89 652.00 348.00
C 649.71 344.42 649.64 340.55 652.00 337.00 Z"/>
</g>
<g fill="#13396F" fill-opacity="1.00" stroke="None">
<path d="
M 524.00 341.00 
C 524.23 340.60 526.53 340.85 527.00 340.00
C 527.00 340.00 526.80 339.40 527.00 339.00
C 526.59 338.74 524.58 338.16 524.00 338.00
C 521.85 338.60 523.77 340.30 524.00 341.00 Z"/>
</g>
<g fill="#1A3E73" fill-opacity="1.00" stroke="None">
<path d="
M 529.00 341.00 
C 530.65 341.18 532.51 340.84 533.00 339.00
C 531.47 339.71 530.24 338.16 529.00 338.00
C 529.16 338.64 529.16 340.36 529.00 341.00 Z"/>
</g>
<g fill="#153B70" fill-opacity="1.00" stroke="None">
<path d="
M 665.00 341.00 
C 661.65 334.67 658.56 343.90 665.00 341.00 Z"/>
</g>
<g fill="#204477" fill-opacity="1.00" stroke="None">
<path d="
M 670.00 341.00 
C 669.83 340.68 669.20 339.16 669.00 339.00
C 666.17 337.70 665.53 339.14 666.00 342.00
C 666.53 341.84 669.80 341.37 670.00 341.00 Z"/>
</g>
<g fill="#F1F3F6" fill-opacity="1.00" stroke="None">
<path d="
M 821.00 360.00 
C 818.80 347.19 803.30 342.32 793.00 338.00
C 790.53 346.11 799.54 347.04 805.00 349.00
C 799.35 351.83 788.74 349.05 790.00 359.00
C 796.34 357.00 800.60 357.79 806.98 354.98 C 813.35 352.16 814.30 361.95 821.00 360.00 Z"/>
</g>
<g fill="#879BB6" fill-opacity="1.00" stroke="None">
<path d="
M 573.00 347.00 
C 571.97 345.86 572.45 345.22 573.00 344.00
C 574.67 344.24 573.17 346.85 575.00 347.00
C 574.62 347.54 577.02 340.98 577.00 342.00
C 576.67 341.53 576.62 338.52 575.00 339.00
C 575.08 339.27 574.35 339.91 574.00 340.00
C 572.79 341.69 569.97 342.32 572.00 340.00
C 570.32 337.37 569.47 341.56 570.00 343.00
C 574.91 342.95 569.70 344.94 573.00 347.00 Z"/>
</g>
<g fill="#9FAEC4" fill-opacity="1.00" stroke="None">
<path d="
M 670.00 341.00 
C 671.54 343.86 669.21 342.71 669.00 344.00
C 668.99 344.04 670.07 346.03 670.00 346.00
C 671.94 345.44 671.60 345.16 673.00 344.00
C 672.95 344.59 671.96 340.90 672.00 341.00
C 671.94 340.95 669.69 337.57 669.00 339.00
C 669.20 339.16 669.83 340.68 670.00 341.00 Z"/>
</g>
<g fill="#1F4376" fill-opacity="1.00" stroke="None">
<path d="
M 524.00 343.00 
C 523.53 344.30 522.26 346.02 523.00 348.00
C 527.77 346.47 532.79 345.82 538.00 346.00
C 534.02 344.40 536.18 343.46 539.00 342.00
C 536.14 341.28 532.82 338.84 534.00 344.00
C 531.30 343.35 526.16 345.12 524.00 343.00 Z"/>
</g>
<g fill="#032B66" fill-opacity="1.00" stroke="None">
<path d="
M 574.00 340.00 
C 573.53 340.12 572.45 340.15 572.00 340.00
C 569.97 342.32 572.79 341.69 574.00 340.00 Z"/>
</g>
<g fill="#798FAF" fill-opacity="1.00" stroke="None">
<path d="
M 641.00 344.00 
C 641.16 343.59 641.16 341.41 641.00 341.00
C 639.75 337.85 639.77 347.09 641.00 344.00 Z"/>
</g>
<g fill="#1A3F74" fill-opacity="1.00" stroke="None">
<path d="
M 641.00 344.00 
C 642.54 344.04 644.16 343.10 645.00 342.00
C 643.41 342.46 642.53 340.59 641.00 341.00
C 641.16 341.41 641.16 343.59 641.00 344.00 Z"/>
</g>
<g fill="#12376E" fill-opacity="1.00" stroke="None">
<path d="
M 673.00 344.00 
C 674.41 344.21 675.56 343.29 676.00 342.00
C 674.51 342.14 673.20 341.86 672.00 341.00
C 671.96 340.90 672.95 344.59 673.00 344.00 Z"/>
</g>
<g fill="#183D72" fill-opacity="1.00" stroke="None">
<path d="
M 665.00 346.00 
C 661.65 339.67 658.56 348.90 665.00 346.00 Z"/>
</g>
<g fill="#214377" fill-opacity="1.00" stroke="None">
<path d="
M 670.00 346.00 
C 670.07 346.03 668.99 344.04 669.00 344.00
C 666.17 342.70 665.53 344.14 666.00 347.00
C 667.42 346.83 668.68 346.39 670.00 346.00 Z"/>
</g>
<g fill="#204276" fill-opacity="1.00" stroke="None">
<path d="
M 573.00 347.00 
C 573.97 347.61 573.97 348.46 575.00 347.00
C 573.17 346.85 574.67 344.24 573.00 344.00
C 572.45 345.22 571.97 345.86 573.00 347.00 Z"/>
</g>
<g fill="#10376E" fill-opacity="1.00" stroke="None">
<path d="
M 411.00 348.00 
C 408.68 343.91 402.50 347.35 399.00 345.00
C 398.72 347.81 399.20 350.49 400.00 353.00
C 404.13 352.51 406.78 348.32 411.00 348.00 Z"/>
</g>
<g fill="#1D4074" fill-opacity="1.00" stroke="None">
<path d="
M 553.00 357.00 
C 545.86 355.49 552.39 365.10 553.00 357.00 Z"/>
</g>
<g fill="#1C4074" fill-opacity="1.00" stroke="None">
<path d="
M 555.00 361.00 
C 555.41 360.81 556.00 361.00 556.00 361.00
C 557.77 360.44 556.63 358.05 558.00 357.00
C 554.57 356.03 553.67 358.27 555.00 361.00 Z"/>
</g>
<g fill="#214578" fill-opacity="1.00" stroke="None">
<path d="
M 632.00 358.00 
C 625.08 355.47 626.17 367.54 624.00 372.00
C 627.05 367.87 629.96 362.79 632.00 358.00 Z"/>
</g>
<g fill="#1C4074" fill-opacity="1.00" stroke="None">
<path d="
M 649.00 362.00 
C 649.35 360.93 650.34 360.68 649.00 360.00
C 645.41 360.32 642.06 359.60 639.00 358.00
C 637.50 364.30 641.95 362.05 646.00 362.00
C 641.79 365.42 647.18 368.80 650.00 371.00
C 648.03 367.85 647.94 365.20 649.00 362.00 Z"/>
</g>
<g fill="#11376E" fill-opacity="1.00" stroke="None">
<path d="
M 578.00 362.00 
C 577.62 361.84 577.23 360.09 577.00 360.00
C 574.34 359.73 571.27 360.72 569.00 359.00
C 567.45 364.69 574.80 362.69 578.00 362.00 Z"/>
</g>
<g fill="#6F86A8" fill-opacity="1.00" stroke="None">
<path d="
M 649.00 360.00 
C 650.34 360.68 649.35 360.93 649.00 362.00
C 650.90 362.23 652.95 361.43 654.00 360.00
C 652.41 359.64 649.73 360.05 649.00 360.00 Z"/>
</g>
<g fill="#294B7C" fill-opacity="1.00" stroke="None">
<path d="
M 534.00 360.00 
C 528.72 358.94 529.37 361.42 531.00 365.00
C 527.99 364.46 524.86 363.40 526.00 368.00
C 530.82 363.81 536.48 370.67 536.00 362.00
C 532.46 365.67 531.21 364.00 534.00 360.00 Z"/>
</g>
<g fill="#6C84A6" fill-opacity="1.00" stroke="None">
<path d="
M 578.00 362.00 
C 579.25 361.72 581.47 362.60 582.00 361.00
C 580.52 359.74 578.76 360.25 577.00 360.00
C 577.23 360.09 577.62 361.84 578.00 362.00 Z"/>
</g>
<g fill="#607B9F" fill-opacity="1.00" stroke="None">
<path d="
M 550.00 363.00 
C 550.98 362.02 551.66 363.91 552.00 364.00
C 551.50 363.86 555.36 363.90 555.00 364.00
C 554.79 364.06 557.02 362.99 557.00 363.00
C 557.01 362.31 557.66 361.82 556.00 361.00
C 556.00 361.00 555.41 360.81 555.00 361.00
C 553.90 361.52 548.67 362.08 550.00 363.00 Z"/>
</g>
<g fill="#143970" fill-opacity="1.00" stroke="None">
<path d="
M 620.00 362.00 
C 616.15 365.60 620.10 366.36 622.00 369.00
C 621.87 366.44 621.88 360.24 620.00 362.00 Z"/>
</g>
<g fill="#768DAB" fill-opacity="1.00" stroke="None">
<path d="
M 622.00 369.00 
C 620.10 366.36 616.15 365.60 620.00 362.00
C 618.71 362.17 618.25 363.70 617.00 364.00
C 618.04 366.32 622.20 372.89 622.00 369.00 Z"/>
</g>
<g fill="#26487B" fill-opacity="1.00" stroke="None">
<path d="
M 673.00 366.00 
C 673.14 365.96 673.14 364.05 673.00 364.00
C 667.84 365.46 659.64 358.67 662.00 368.00
C 665.18 365.60 669.49 367.06 673.00 366.00 Z"/>
</g>
<g fill="#0F366D" fill-opacity="1.00" stroke="None">
<path d="
M 550.00 366.00 
C 550.42 365.81 551.55 365.85 552.00 366.00
C 552.25 365.75 552.18 364.07 552.00 364.00
C 551.66 363.91 550.98 362.02 550.00 363.00
C 549.69 363.31 550.06 365.52 550.00 366.00 Z"/>
</g>
<g fill="#F8F8FA" fill-opacity="1.00" stroke="None">
<path d="
M 552.00 364.00 
C 552.18 364.07 552.25 365.75 552.00 366.00
C 553.85 366.62 553.21 366.59 555.00 366.00
C 554.75 365.75 554.87 364.46 555.00 364.00
C 555.36 363.90 551.50 363.86 552.00 364.00 Z"/>
</g>
<g fill="#0F366D" fill-opacity="1.00" stroke="None">
<path d="
M 555.00 364.00 
C 554.87 364.46 554.75 365.75 555.00 366.00
C 555.45 365.85 556.70 366.24 557.00 366.00
C 556.88 365.05 556.99 363.96 557.00 363.00
C 557.02 362.99 554.79 364.06 555.00 364.00 Z"/>
</g>
<g fill="#13396F" fill-opacity="1.00" stroke="None">
<path d="
M 581.00 364.00 
C 573.78 361.30 578.78 370.56 581.00 364.00 Z"/>
</g>
<g fill="#F3F5F7" fill-opacity="1.00" stroke="None">
<path d="
M 785.00 367.00 
C 783.24 368.76 783.88 371.90 785.00 374.00
C 786.98 373.62 787.29 375.51 787.00 377.00
C 792.68 377.23 797.47 376.02 804.00 378.00 C 810.52 379.98 814.30 367.18 807.00 367.00
C 805.57 373.43 798.44 370.07 794.00 369.00
C 796.10 365.28 793.87 363.11 790.00 363.00
C 790.96 368.56 787.55 366.13 785.00 367.00 Z"/>
</g>
<g fill="#9BAAC2" fill-opacity="1.00" stroke="None">
<path d="
M 673.00 366.00 
C 674.31 366.06 676.64 366.03 676.00 364.00
C 675.05 363.81 673.94 364.24 673.00 364.00
C 673.14 364.05 673.14 365.96 673.00 366.00 Z"/>
</g>
<g fill="#F2F4F7" fill-opacity="1.00" stroke="None">
<path d="
M 409.00 372.00 
C 415.73 359.79 395.05 369.57 389.00 371.00
C 389.35 378.24 395.33 377.29 400.78 374.78 C 406.23 372.27 408.22 381.78 414.00 378.00
C 414.51 375.14 411.68 372.24 409.00 372.00 Z"/>
</g>
<g fill="#8C9FB9" fill-opacity="1.00" stroke="None">
<path d="
M 550.00 369.00 
C 550.94 367.03 551.42 369.08 552.00 369.00
C 552.88 368.88 553.18 368.16 554.00 368.00
C 554.94 367.82 557.02 369.00 557.00 369.00
C 557.59 367.32 557.25 367.95 557.00 366.00
C 556.70 366.24 555.45 365.85 555.00 366.00
C 553.21 366.59 553.85 366.62 552.00 366.00
C 551.55 365.85 550.42 365.81 550.00 366.00
C 549.75 367.98 549.47 367.33 550.00 369.00 Z"/>
</g>
<g fill="#8FA1BC" fill-opacity="1.00" stroke="None">
<path d="
M 785.00 374.00 
C 783.88 371.90 783.24 368.76 785.00 367.00
C 782.32 367.91 782.32 370.47 785.00 374.00 Z"/>
</g>
<g fill="#143A70" fill-opacity="1.00" stroke="None">
<path d="
M 578.00 370.00 
C 578.31 369.86 578.85 368.05 579.00 368.00
C 575.29 369.19 567.67 363.91 569.00 371.00
C 571.61 369.12 575.00 370.45 578.00 370.00 Z"/>
</g>
<g fill="#214478" fill-opacity="1.00" stroke="None">
<path d="
M 550.00 369.00 
C 549.94 370.31 549.97 372.64 552.00 372.00
C 552.36 371.22 551.55 369.73 552.00 369.00
C 551.42 369.08 550.94 367.03 550.00 369.00 Z"/>
</g>
<g fill="#1B3F74" fill-opacity="1.00" stroke="None">
<path d="
M 557.00 369.00 
C 557.02 369.00 554.94 367.82 554.00 368.00
C 554.54 369.31 555.41 370.44 555.00 372.00
C 556.71 371.89 556.63 370.05 557.00 369.00 Z"/>
</g>
<g fill="#8498B4" fill-opacity="1.00" stroke="None">
<path d="
M 578.00 370.00 
C 579.33 370.00 580.67 370.00 582.00 370.00
C 582.51 367.54 580.30 368.37 579.00 368.00
C 578.85 368.05 578.31 369.86 578.00 370.00 Z"/>
</g>
<g fill="#5E7A9E" fill-opacity="1.00" stroke="None">
<path d="
M 618.00 381.00 
C 618.16 380.58 618.16 378.42 618.00 378.00
C 616.75 374.85 616.78 384.09 618.00 381.00 Z"/>
</g>
<g fill="#B5C2D2" fill-opacity="1.00" stroke="None">
<path d="
M 639.00 379.00 
C 640.31 377.03 641.73 378.49 643.00 379.00
C 643.43 379.17 644.54 379.14 645.00 379.00
C 646.22 378.63 647.15 377.76 649.00 378.00
C 649.00 378.00 649.51 378.06 650.00 378.00
C 651.56 377.80 653.11 377.70 654.00 379.00
C 653.52 375.87 639.40 375.71 639.00 379.00 Z"/>
</g>
<g fill="#93A5BE" fill-opacity="1.00" stroke="None">
<path d="
M 529.00 379.00 
C 530.65 379.67 531.82 378.25 533.00 380.00
C 532.50 376.45 529.31 379.13 529.00 379.00 Z"/>
</g>
<g fill="#96A8C0" fill-opacity="1.00" stroke="None">
<path d="
M 545.00 379.00 
C 546.50 379.33 548.46 379.00 550.00 379.00
C 550.00 379.00 550.50 379.00 551.00 379.00
C 552.67 379.00 554.33 379.00 556.00 379.00
C 556.00 379.00 556.50 379.00 557.00 379.00
C 558.67 379.00 560.33 379.00 562.00 379.00
C 558.90 377.59 545.61 377.00 545.00 379.00 Z"/>
</g>
<g fill="#1C4075" fill-opacity="1.00" stroke="None">
<path d="
M 618.00 381.00 
C 622.40 380.86 627.30 380.48 631.00 379.00
C 626.66 380.17 622.30 376.44 618.00 378.00
C 618.16 378.42 618.16 380.58 618.00 381.00 Z"/>
</g>
<g fill="#11376E" fill-opacity="1.00" stroke="None">
<path d="
M 639.00 379.00 
C 638.82 380.46 639.71 385.20 640.00 387.00
C 640.17 386.59 641.88 386.26 642.00 386.00
C 642.35 384.13 641.57 380.45 643.00 379.00
C 641.73 378.49 640.31 377.03 639.00 379.00 Z"/>
</g>
<g fill="#11376E" fill-opacity="1.00" stroke="None">
<path d="
M 645.00 379.00 
C 646.39 382.76 645.11 387.73 647.00 391.00
C 647.93 387.23 646.44 381.17 649.00 378.00
C 647.15 377.76 646.22 378.63 645.00 379.00 Z"/>
</g>
<g fill="#11376E" fill-opacity="1.00" stroke="None">
<path d="
M 654.00 379.00 
C 653.11 377.70 651.56 377.80 650.00 378.00
C 651.31 381.82 651.81 385.89 652.00 390.00
C 652.69 387.23 654.52 382.35 654.00 379.00 Z"/>
</g>
<g fill="#E8ECF1" fill-opacity="1.00" stroke="None">
<path d="
M 781.00 378.00 
C 776.84 375.33 772.83 381.40 776.78 384.22 C 780.72 387.03 784.01 379.93 781.00 378.00 Z"/>
</g>
<g fill="#153A71" fill-opacity="1.00" stroke="None">
<path d="
M 530.00 390.00 
C 529.95 390.06 532.01 391.01 532.00 391.00
C 531.53 387.20 533.48 383.39 533.00 380.00
C 531.82 378.25 530.65 379.67 529.00 379.00
C 528.00 382.00 530.32 386.58 530.00 390.00 Z"/>
</g>
<g fill="#193E73" fill-opacity="1.00" stroke="None">
<path d="
M 533.00 393.00 
C 533.50 393.05 534.00 393.00 534.00 393.00
C 534.66 387.90 545.44 380.12 536.00 379.00
C 536.54 384.06 533.46 388.23 533.00 393.00 Z"/>
</g>
<g fill="#173C71" fill-opacity="1.00" stroke="None">
<path d="
M 550.00 379.00 
C 548.46 379.00 546.50 379.33 545.00 379.00
C 547.02 383.97 545.70 390.42 548.00 395.00
C 549.39 390.53 546.93 382.80 550.00 379.00 Z"/>
</g>
<g fill="#0F356D" fill-opacity="1.00" stroke="None">
<path d="
M 556.00 379.00 
C 554.33 379.00 552.67 379.00 551.00 379.00
C 553.12 383.95 551.89 390.37 554.00 395.00
C 554.94 390.37 552.87 382.87 556.00 379.00 Z"/>
</g>
<g fill="#1A3E73" fill-opacity="1.00" stroke="None">
<path d="
M 562.00 379.00 
C 560.33 379.00 558.67 379.00 557.00 379.00
C 559.04 383.97 557.41 390.50 560.00 395.00
C 560.49 389.61 560.52 384.12 562.00 379.00 Z"/>
</g>
<g fill="#12386F" fill-opacity="1.00" stroke="None">
<path d="
M 583.00 379.00 
C 577.64 380.02 573.59 382.23 567.00 379.00
C 564.98 386.94 574.38 381.46 579.00 383.00
C 580.00 387.19 579.29 392.35 581.00 396.00
C 580.55 390.07 581.96 383.99 583.00 379.00 Z"/>
</g>
<g fill="#234679" fill-opacity="1.00" stroke="None">
<path d="
M 667.00 384.00 
C 668.20 383.70 667.96 386.50 668.00 387.00
C 668.05 387.63 667.57 391.73 668.00 392.00
C 668.16 391.55 669.84 391.29 670.00 391.00
C 670.25 389.38 669.87 387.64 670.00 386.00
C 670.02 385.72 669.76 382.41 671.00 383.00
C 671.92 379.45 668.35 379.84 666.00 380.00
C 667.00 381.23 666.75 382.55 667.00 384.00 Z"/>
</g>
<g fill="#F1F3F6" fill-opacity="1.00" stroke="None">
<path d="
M 804.00 394.00 
C 808.11 383.11 791.42 384.52 785.00 380.00
C 784.76 382.48 783.26 384.56 783.00 387.00
C 790.26 388.57 796.74 392.64 804.00 394.00 Z"/>
</g>
<g fill="#7189A8" fill-opacity="1.00" stroke="None">
<path d="
M 525.00 384.00 
C 525.45 383.85 526.00 384.00 526.00 384.00
C 527.23 383.72 528.27 382.28 528.00 381.00
C 526.40 381.15 525.98 383.15 525.00 384.00 Z"/>
</g>
<g fill="#F1F3F6" fill-opacity="1.00" stroke="None">
<path d="
M 414.00 390.00 
C 414.32 391.69 415.22 394.98 412.00 393.00
C 411.72 386.36 400.55 381.02 396.93 387.93 C 393.30 394.83 402.18 399.26 401.00 406.00
C 406.36 403.29 415.38 402.14 419.07 397.07 C 422.76 392.00 416.44 379.07 411.00 384.00
C 411.99 385.95 414.10 387.61 414.00 390.00
M 406.00 391.00 
C 409.18 391.97 408.08 398.44 404.32 396.66 C 400.56 394.88 402.13 389.82 406.00 391.00 Z"/>
</g>
<g fill="#526F96" fill-opacity="1.00" stroke="None">
<path d="
M 662.00 388.00 
C 662.37 388.01 665.47 388.89 665.00 389.00
C 665.23 387.69 666.26 388.59 665.00 387.00
C 663.94 385.66 661.69 385.52 661.00 384.00
C 662.95 383.38 664.13 385.20 666.00 385.00
C 665.83 383.71 664.30 383.25 664.00 382.00
C 658.28 382.81 661.29 386.45 659.00 389.00
C 660.17 389.64 661.07 387.98 662.00 388.00 Z"/>
</g>
<g fill="#335483" fill-opacity="1.00" stroke="None">
<path d="
M 672.00 385.00 
C 673.33 385.55 674.52 383.72 676.00 384.00
C 676.35 384.07 677.02 384.68 677.00 385.00
C 678.88 384.15 675.27 381.60 674.00 382.00
C 673.67 382.40 672.52 384.90 672.00 385.00 Z"/>
</g>
<g fill="#25487A" fill-opacity="1.00" stroke="None">
<path d="
M 631.00 385.00 
C 626.09 386.19 615.28 379.13 617.00 388.00
C 621.04 384.90 627.05 387.20 631.00 385.00 Z"/>
</g>
<g fill="#B1BED0" fill-opacity="1.00" stroke="None">
<path d="
M 670.00 386.00 
C 669.64 385.50 673.72 386.96 673.00 387.00
C 673.17 386.99 674.92 386.08 675.00 386.00
C 675.51 385.49 675.68 384.60 676.00 384.00
C 674.52 383.72 673.33 385.55 672.00 385.00
C 670.82 384.51 671.21 384.08 671.00 383.00
C 669.76 382.41 670.02 385.72 670.00 386.00 Z"/>
</g>
<g fill="#2B4C7D" fill-opacity="1.00" stroke="None">
<path d="
M 522.00 387.00 
C 521.85 388.95 526.15 390.82 527.00 392.00
C 526.86 389.27 525.89 386.99 526.00 384.00
C 526.00 384.00 525.45 383.85 525.00 384.00
C 523.81 384.40 522.43 385.77 522.00 387.00 Z"/>
</g>
<g fill="#B0BECF" fill-opacity="1.00" stroke="None">
<path d="
M 665.00 387.00 
C 665.32 387.07 667.00 385.22 668.00 387.00
C 667.96 386.50 668.20 383.70 667.00 384.00
C 667.05 384.30 666.30 385.05 666.00 385.00
C 664.13 385.20 662.95 383.38 661.00 384.00
C 661.69 385.52 663.94 385.66 665.00 387.00 Z"/>
</g>
<g fill="#758CAC" fill-opacity="1.00" stroke="None">
<path d="
M 675.00 386.00 
C 676.17 385.99 676.43 387.50 677.00 388.00
C 679.76 387.61 676.78 387.89 677.00 385.00
C 677.02 384.68 676.35 384.07 676.00 384.00
C 675.68 384.60 675.51 385.49 675.00 386.00 Z"/>
</g>
<g fill="#6B84A6" fill-opacity="1.00" stroke="None">
<path d="
M 640.00 387.00 
C 640.28 388.25 639.40 390.47 641.00 391.00
C 642.31 389.55 641.68 387.73 642.00 386.00
C 641.88 386.26 640.17 386.59 640.00 387.00 Z"/>
</g>
<g fill="#385886" fill-opacity="1.00" stroke="None">
<path d="
M 673.00 387.00 
C 673.64 387.64 672.46 388.65 677.00 388.00
C 676.43 387.50 676.17 385.99 675.00 386.00
C 674.92 386.08 673.17 386.99 673.00 387.00 Z"/>
</g>
<g fill="#B0BDCF" fill-opacity="1.00" stroke="None">
<path d="
M 527.00 392.00 
C 526.15 390.82 521.85 388.95 522.00 387.00
C 521.66 387.97 527.22 396.34 527.00 392.00 Z"/>
</g>
<g fill="#9EAEC5" fill-opacity="1.00" stroke="None">
<path d="
M 661.00 390.00 
C 662.14 388.97 662.78 389.45 664.00 390.00
C 663.76 391.67 661.15 390.17 661.00 392.00
C 662.67 392.00 664.33 392.00 666.00 392.00
C 664.82 390.61 664.82 389.99 665.00 389.00
C 665.47 388.89 662.37 388.01 662.00 388.00
C 661.94 388.03 661.10 389.81 661.00 390.00 Z"/>
</g>
<g fill="#1A3F74" fill-opacity="1.00" stroke="None">
<path d="
M 619.00 393.00 
C 618.70 391.67 622.41 392.02 623.00 392.00
C 624.33 391.95 625.67 392.08 627.00 392.00
C 627.24 391.68 627.19 390.08 627.00 390.00
C 623.58 390.09 620.08 390.17 617.00 389.00
C 616.39 391.72 617.36 392.07 619.00 393.00 Z"/>
</g>
<g fill="#2A4B7E" fill-opacity="1.00" stroke="None">
<path d="
M 661.00 390.00 
C 660.55 390.85 659.35 391.10 661.00 392.00
C 661.15 390.17 663.76 391.67 664.00 390.00
C 662.78 389.45 662.14 388.97 661.00 390.00 Z"/>
</g>
<g fill="#43608C" fill-opacity="1.00" stroke="None">
<path d="
M 678.00 391.00 
C 676.58 388.54 673.72 389.06 672.00 391.00
C 673.16 392.34 676.83 391.03 678.00 391.00 Z"/>
</g>
<g fill="#7288AA" fill-opacity="1.00" stroke="None">
<path d="
M 412.00 393.00 
C 415.22 394.98 414.32 391.69 414.00 390.00
C 413.93 391.71 414.15 393.14 412.00 393.00 Z"/>
</g>
<g fill="#5E789D" fill-opacity="1.00" stroke="None">
<path d="
M 530.00 391.00 
C 530.94 392.30 531.86 394.14 532.00 396.00
C 533.09 395.91 533.57 393.83 534.00 393.00
C 534.00 393.00 533.50 393.05 533.00 393.00
C 531.84 392.89 532.09 391.75 532.00 391.00
C 532.01 391.01 529.95 390.06 530.00 390.00
C 530.00 390.00 530.01 390.50 530.00 391.00 Z"/>
</g>
<g fill="#899BB7" fill-opacity="1.00" stroke="None">
<path d="
M 627.00 392.00 
C 628.47 391.90 631.63 392.53 631.00 390.00
C 629.69 389.85 628.30 390.19 627.00 390.00
C 627.19 390.08 627.24 391.68 627.00 392.00 Z"/>
</g>
<g fill="#0F366D" fill-opacity="1.00" stroke="None">
<path d="
M 406.00 391.00 
C 402.13 389.82 400.56 394.88 404.32 396.66 C 408.08 398.44 409.18 391.97 406.00 391.00 Z"/>
</g>
<g fill="#8FA1BB" fill-opacity="1.00" stroke="None">
<path d="
M 532.00 396.00 
C 531.86 394.14 530.94 392.30 530.00 391.00
C 529.97 391.95 530.47 396.13 532.00 396.00 Z"/>
</g>
<g fill="#1F4376" fill-opacity="1.00" stroke="None">
<path d="
M 655.00 394.00 
C 650.14 391.81 643.09 393.83 638.00 391.00
C 636.74 400.31 649.42 392.42 655.00 394.00 Z"/>
</g>
<g fill="#96A7BE" fill-opacity="1.00" stroke="None">
<path d="
M 668.00 392.00 
C 667.85 393.19 668.59 394.51 670.00 394.00
C 670.12 393.02 669.85 391.98 670.00 391.00
C 669.84 391.29 668.16 391.55 668.00 392.00 Z"/>
</g>
<g fill="#8297B4" fill-opacity="1.00" stroke="None">
<path d="
M 619.00 393.00 
C 619.24 393.13 620.74 394.02 621.00 394.00
C 620.31 394.04 623.35 392.72 623.00 393.00
C 623.00 393.00 622.78 392.13 623.00 392.00
C 622.41 392.02 618.70 391.67 619.00 393.00 Z"/>
</g>
<g fill="#ECEFF3" fill-opacity="1.00" stroke="None">
<path d="
M 785.00 396.00 
C 785.22 393.58 782.36 393.46 781.00 392.00
C 776.13 396.49 775.85 402.54 779.31 407.69 C 782.76 412.84 792.03 401.83 793.21 403.77 C 794.40 405.71 788.27 417.00 795.25 412.25 C 802.22 407.49 799.28 401.56 795.69 397.31 C 792.11 393.05 785.29 400.78 782.00 402.00
C 781.54 399.46 782.50 396.98 785.00 396.00 Z"/>
</g>
<g fill="#1E4276" fill-opacity="1.00" stroke="None">
<path d="
M 621.00 394.00 
C 620.79 395.42 621.71 396.56 623.00 397.00
C 623.49 394.98 623.79 394.49 623.00 393.00
C 623.35 392.72 620.31 394.04 621.00 394.00 Z"/>
</g>
<g fill="#F2F4F7" fill-opacity="1.00" stroke="None">
<path d="
M 433.00 396.00 
C 423.51 400.04 414.62 406.22 405.00 410.00
C 404.78 412.09 406.32 417.20 409.00 415.00
C 406.33 438.47 445.62 421.43 426.00 407.00
C 429.25 406.46 431.54 403.14 435.00 403.00
C 435.60 400.26 433.00 398.54 433.00 396.00
M 424.00 411.00 
C 428.88 414.30 420.10 423.72 415.33 419.67 C 410.55 415.62 419.28 407.81 424.00 411.00 Z"/>
</g>
<g fill="#022B66" fill-opacity="1.00" stroke="None">
<path d="
M 593.00 409.00 
C 588.48 394.35 567.52 399.97 556.00 399.00 C 544.48 398.03 541.26 399.05 532.00 399.00 C 522.74 398.95 515.37 395.98 514.00 404.00
C 540.03 406.58 569.34 398.40 593.00 409.00 Z"/>
</g>
<g fill="#022B65" fill-opacity="1.00" stroke="None">
<path d="
M 686.00 399.00 
C 672.23 399.30 654.36 398.59 641.00 399.00 C 627.64 399.41 612.74 395.57 607.00 409.00
C 614.12 403.12 623.07 404.39 632.00 404.00 C 640.93 403.61 653.35 404.85 662.00 404.00 C 670.65 403.15 684.84 408.10 686.00 399.00 Z"/>
</g>
<g fill="#7087A8" fill-opacity="1.00" stroke="None">
<path d="
M 579.00 407.00 
C 557.59 403.16 533.30 407.79 511.00 406.00
C 514.11 410.44 527.14 405.63 533.00 407.00 C 538.86 408.37 549.27 406.31 556.00 407.00 C 562.73 407.69 572.03 406.53 579.00 407.00 Z"/>
</g>
<g fill="#7087A8" fill-opacity="1.00" stroke="None">
<path d="
M 621.00 407.00 
C 627.96 406.53 637.28 407.70 644.00 407.00 C 650.72 406.30 661.16 408.38 667.00 407.00 C 672.84 405.62 685.88 410.46 689.00 406.00
C 666.69 407.80 642.49 403.15 621.00 407.00 Z"/>
</g>
<g fill="#F1F3F6" fill-opacity="1.00" stroke="None">
<path d="
M 778.00 411.00 
C 773.58 405.43 768.86 410.64 772.00 416.00
C 768.95 413.32 766.44 417.24 766.00 420.00
C 772.74 422.67 778.40 427.78 785.00 431.00
C 785.01 428.59 787.45 427.28 788.00 425.00
C 783.46 421.69 772.44 418.18 778.00 411.00 Z"/>
</g>
<g fill="#083069" fill-opacity="1.00" stroke="None">
<path d="
M 424.00 411.00 
C 419.28 407.81 410.55 415.62 415.33 419.67 C 420.10 423.72 428.88 414.30 424.00 411.00 Z"/>
</g>
<g fill="#F1F3F6" fill-opacity="1.00" stroke="None">
<path d="
M 452.00 423.00 
C 446.20 426.09 440.38 431.32 435.08 435.08 C 429.79 438.85 420.81 442.54 427.00 449.00
C 432.62 446.27 438.93 440.74 443.92 436.92 C 448.91 433.10 458.75 429.68 452.00 423.00 Z"/>
</g>
<g fill="#F1F4F6" fill-opacity="1.00" stroke="None">
<path d="
M 774.00 430.00 
C 762.03 420.51 750.60 435.06 759.75 445.25 C 768.91 455.43 785.07 440.77 776.00 434.00
C 773.98 437.81 772.54 443.65 767.00 443.00
C 767.67 437.93 773.47 435.15 774.00 430.00
M 767.00 433.00 
C 765.28 434.97 764.63 437.95 762.00 439.00
C 758.93 435.48 763.17 430.25 767.00 433.00 Z"/>
</g>
<g fill="#0D336B" fill-opacity="1.00" stroke="None">
<path d="
M 767.00 433.00 
C 763.17 430.25 758.93 435.48 762.00 439.00
C 764.63 437.95 765.28 434.97 767.00 433.00 Z"/>
</g>
<g fill="#6781A4" fill-opacity="1.00" stroke="None">
<path d="
M 604.00 434.00 
C 601.40 434.18 598.60 434.14 596.00 434.00
C 598.82 434.46 601.10 434.52 604.00 434.00 Z"/>
</g>
<g fill="#F0F3F6" fill-opacity="1.00" stroke="None">
<path d="
M 453.00 465.00 
C 454.40 463.60 458.16 460.52 459.00 459.00
C 462.47 453.61 457.41 445.79 451.00 447.00
C 454.48 444.29 450.45 441.74 448.00 440.00
C 443.70 445.77 437.35 450.18 433.00 456.00
C 435.32 456.71 436.25 460.27 439.00 460.00
C 440.48 456.65 450.61 446.77 452.99 452.99 C 455.37 459.21 442.71 460.93 442.00 466.00
C 444.32 466.71 445.25 470.27 448.00 470.00
C 448.94 467.83 451.26 466.48 453.00 465.00 Z"/>
</g>
<g fill="#F1F3F6" fill-opacity="1.00" stroke="None">
<path d="
M 752.00 441.00 
C 749.97 441.73 749.04 444.19 747.00 445.00
C 747.86 450.01 752.03 453.43 754.00 458.00
C 749.00 456.94 744.98 453.06 740.00 452.00
C 739.29 454.32 735.73 455.25 736.00 458.00
C 744.93 458.24 754.49 470.90 762.00 462.00
C 760.03 454.43 753.97 448.56 752.00 441.00 Z"/>
</g>
<g fill="#E7EBF0" fill-opacity="1.00" stroke="None">
<path d="
M 728.00 453.00 
C 724.35 451.61 720.46 458.07 725.00 460.00 C 729.54 461.92 732.16 454.58 728.00 453.00 Z"/>
</g>
<g fill="#F0F2F5" fill-opacity="1.00" stroke="None">
<path d="
M 476.00 460.00 
C 471.82 455.99 468.30 459.07 464.00 458.00
C 462.88 463.86 460.62 468.07 455.93 472.93 C 451.23 477.78 462.74 488.21 464.00 479.00
C 459.10 476.06 466.47 472.05 468.00 469.00
C 471.16 470.77 473.36 471.15 476.00 468.00
C 472.96 465.33 472.73 462.66 476.00 460.00 Z"/>
</g>
<g fill="#7389A9" fill-opacity="1.00" stroke="None">
<path d="
M 453.00 465.00 
C 454.97 463.32 457.83 461.53 459.00 459.00
C 458.16 460.52 454.40 463.60 453.00 465.00 Z"/>
</g>
<g fill="#748AAB" fill-opacity="1.00" stroke="None">
<path d="
M 729.00 464.00 
C 729.23 460.94 733.05 460.08 735.00 461.00
C 732.39 459.04 728.42 460.59 729.00 464.00 Z"/>
</g>
<g fill="#F4F6F8" fill-opacity="1.00" stroke="None">
<path d="
M 729.00 464.00 
C 731.80 470.27 739.05 473.74 742.00 480.00
C 743.98 478.62 746.84 476.64 747.00 474.00
C 742.19 470.84 739.69 464.51 735.00 461.00
C 733.05 460.08 729.23 460.94 729.00 464.00 Z"/>
</g>
<g fill="#F0F2F5" fill-opacity="1.00" stroke="None">
<path d="
M 726.00 493.00 
C 725.09 488.82 713.40 481.02 719.77 476.79 C 726.14 472.56 726.09 490.20 732.77 487.77 C 739.45 485.34 733.06 478.43 729.25 473.75 C 725.43 469.08 714.67 468.23 714.00 477.00
C 704.67 475.23 710.21 483.50 713.70 487.30 C 717.19 491.10 720.23 500.22 726.00 493.00 Z"/>
</g>
<g fill="#F2F4F6" fill-opacity="1.00" stroke="None">
<path d="
M 698.00 471.00 
C 695.71 470.84 694.25 473.14 692.00 473.00
C 692.22 479.56 709.77 497.87 700.22 502.22 C 690.68 506.56 687.52 482.84 682.00 479.00
C 679.98 480.02 678.01 480.95 676.00 482.00
C 682.54 491.22 687.32 515.68 703.30 507.30 C 719.28 498.93 701.96 481.31 698.00 471.00 Z"/>
</g>
<g fill="#F2F4F7" fill-opacity="1.00" stroke="None">
<path d="
M 475.00 484.00 
C 480.33 484.96 485.98 494.78 489.69 487.69 C 493.41 480.61 489.41 475.04 483.00 473.00 C 476.59 470.96 469.02 478.72 469.00 484.00 C 468.98 489.27 473.41 497.16 479.97 496.97 C 486.54 496.78 474.39 487.79 475.00 484.00
M 485.00 484.00 
C 482.65 482.98 480.15 481.42 479.00 479.00
C 482.52 475.93 487.75 480.17 485.00 484.00 Z"/>
</g>
<g fill="#10366E" fill-opacity="1.00" stroke="None">
<path d="
M 485.00 484.00 
C 487.75 480.17 482.52 475.93 479.00 479.00
C 480.15 481.42 482.65 482.98 485.00 484.00 Z"/>
</g>
<g fill="#EFF2F5" fill-opacity="1.00" stroke="None">
<path d="
M 502.00 488.00 
C 502.80 484.83 499.51 483.22 497.00 483.00
C 494.09 489.57 489.12 495.17 487.00 502.00
C 489.02 503.02 490.99 503.95 493.00 505.00
C 495.36 500.21 498.55 489.76 506.00 494.00
C 507.63 492.66 508.60 490.11 509.00 488.00
C 506.68 487.65 504.16 485.99 502.00 488.00 Z"/>
</g>
<g fill="#EFF1F5" fill-opacity="1.00" stroke="None">
<path d="
M 517.00 496.00 
C 517.80 492.83 514.51 491.22 512.00 491.00
C 509.23 497.78 506.07 504.32 503.00 511.00
C 505.27 511.92 507.48 513.06 510.00 513.00
C 511.37 510.36 514.62 497.06 519.74 500.26 C 524.87 503.45 515.72 513.22 516.00 517.00
C 528.46 523.83 535.38 488.70 517.00 496.00 Z"/>
</g>
<g fill="#F1F4F6" fill-opacity="1.00" stroke="None">
<path d="
M 673.00 521.00 
C 672.10 514.65 668.85 507.98 666.93 502.07 C 665.00 496.17 663.71 487.48 656.00 493.00
C 662.73 501.18 659.99 522.98 673.00 521.00 Z"/>
</g>
<g fill="#E5E9EF" fill-opacity="1.00" stroke="None">
<path d="
M 580.00 501.00 
C 575.69 499.26 571.78 504.55 576.00 507.00 C 580.22 509.45 584.21 502.70 580.00 501.00 Z"/>
</g>
<g fill="#F2F4F7" fill-opacity="1.00" stroke="None">
<path d="
M 545.00 509.00 
C 537.36 504.84 522.99 517.87 532.93 523.07 C 542.87 528.27 547.48 525.94 550.02 516.02 C 552.57 506.11 545.72 499.77 535.00 502.00
C 533.67 508.58 542.40 504.49 545.00 509.00
M 542.00 514.00 
C 544.69 515.52 541.49 521.68 538.32 519.66 C 535.15 517.64 538.27 511.89 542.00 514.00 Z"/>
</g>
<g fill="#EFF2F5" fill-opacity="1.00" stroke="None">
<path d="
M 567.00 513.00 
C 567.58 512.48 570.12 511.34 570.00 510.00
C 566.58 507.27 564.11 507.46 566.00 502.00
C 559.83 499.92 559.59 506.05 555.00 507.00
C 557.52 512.59 556.15 518.98 556.03 524.97 C 555.91 530.96 567.25 532.18 567.00 526.00
C 560.54 524.59 564.15 517.70 564.00 513.00
C 564.65 512.60 566.44 513.50 567.00 513.00 Z"/>
</g>
<g fill="#F0F2F5" fill-opacity="1.00" stroke="None">
<path d="
M 660.00 525.00 
C 657.97 520.31 658.26 512.04 654.75 508.25 C 651.24 504.46 643.28 502.27 639.26 508.26 C 635.24 514.25 646.83 509.37 649.00 512.00
C 643.70 513.66 634.89 520.86 641.25 526.75 C 647.62 532.64 653.21 523.26 660.00 525.00
M 651.00 517.00 
C 651.91 520.51 650.11 524.20 646.00 523.00
C 645.17 519.91 647.59 516.29 651.00 517.00 Z"/>
</g>
<g fill="#EFF1F5" fill-opacity="1.00" stroke="None">
<path d="
M 620.00 522.00 
C 619.74 519.95 618.46 519.26 620.00 517.00
C 631.45 508.46 621.39 538.43 635.00 530.00
C 632.05 524.50 635.67 513.41 629.07 509.93 C 622.47 506.45 617.44 513.39 611.00 511.00
C 613.00 518.09 612.85 525.71 614.00 533.00
C 622.66 533.81 620.11 527.97 620.00 522.00 Z"/>
</g>
<g fill="#7089AA" fill-opacity="1.00" stroke="None">
<path d="
M 567.00 513.00 
C 567.34 512.76 571.26 514.11 570.00 510.00
C 570.12 511.34 567.58 512.48 567.00 513.00 Z"/>
</g>
<g fill="#ECEFF3" fill-opacity="1.00" stroke="None">
<path d="
M 581.00 510.00 
C 571.92 507.22 573.64 515.32 572.93 520.93 C 572.22 526.53 569.83 534.59 579.00 532.00
C 578.54 524.38 580.35 517.32 581.00 510.00 Z"/>
</g>
<g fill="#F2F4F7" fill-opacity="1.00" stroke="None">
<path d="
M 601.00 511.00 
C 586.67 506.65 577.93 525.44 591.33 532.67 C 604.73 539.90 614.51 515.10 601.00 511.00
M 598.00 516.00 
C 602.87 518.09 599.91 530.33 594.33 527.67 C 588.74 525.00 592.22 513.52 598.00 516.00 Z"/>
</g>
<g fill="#1D4275" fill-opacity="1.00" stroke="None">
<path d="
M 542.00 514.00 
C 538.27 511.89 535.15 517.64 538.32 519.66 C 541.49 521.68 544.69 515.52 542.00 514.00 Z"/>
</g>
<g fill="#032D66" fill-opacity="1.00" stroke="None">
<path d="
M 598.00 516.00 
C 592.22 513.52 588.74 525.00 594.33 527.67 C 599.91 530.33 602.87 518.09 598.00 516.00 Z"/>
</g>
<g fill="#6F87A8" fill-opacity="1.00" stroke="None">
<path d="
M 620.00 522.00 
C 619.97 520.64 619.56 518.28 620.00 517.00
C 618.46 519.26 619.74 519.95 620.00 522.00 Z"/>
</g>
<g fill="#083169" fill-opacity="1.00" stroke="None">
<path d="
M 651.00 517.00 
C 647.59 516.29 645.17 519.91 646.00 523.00
C 650.11 524.20 651.91 520.51 651.00 517.00 Z"/>
</g>
<g fill="#9EAEC4" fill-opacity="1.00" stroke="None">
<path d="
M 610.00 556.00 
C 603.33 556.00 596.67 556.00 590.00 556.00
C 596.23 556.60 603.71 556.61 610.00 556.00 Z"/>
</g>
</svg>