<svg width="48" height="60" viewBox="0 0 48 60" fill="none" xmlns="http://www.w3.org/2000/svg">
<path fill-rule="evenodd" clip-rule="evenodd" d="M31.3576 51.9904L7.46837 52.0014L7.46631 46.9423L31.3545 46.9301L31.3576 51.9904ZM47.5001 23.3385L43.4135 0L38.386 0.865032L42.4721 24.2036L47.5001 23.3385ZM31.9321 40.4434L8.14475 38.27L7.67639 43.3089L31.4641 45.4802L31.9321 40.4434ZM33.5014 33.8414L10.4326 27.6924L9.10716 32.5777L32.1775 38.7275L33.5014 33.8414ZM36.5131 28.0546L15.9369 16.0206L13.3436 20.3769L33.9208 32.4116L36.5131 28.0546ZM41.5584 24.5111L28.0991 4.93963L23.8834 7.78981L37.3432 27.3604L41.5584 24.5111Z" fill="#FF810F"/>
<path fill-rule="evenodd" clip-rule="evenodd" d="M35.4145 35.3481V56.0305H4.08105V35.3481H0V60.0001H39.475V35.3481H35.4145Z" fill="#BEBCBC"/>
</svg>
