<svg width="60" height="60" viewBox="0 0 60 60" fill="none" xmlns="http://www.w3.org/2000/svg">
<rect width="60" height="60" rx="30" fill="url(#paint0_linear_0_7078)"/>
<g filter="url(#filter0_i_0_7078)">
<path d="M15.8146 28.1023C15.8146 28.1023 30.1977 21.7236 35.186 19.4774C37.0983 18.5791 43.5831 15.704 43.5831 15.704C43.5831 15.704 46.5762 14.4463 46.3267 17.5009C46.2435 18.7587 45.5785 23.1609 44.9134 27.9226C43.9157 34.6609 42.8349 42.0279 42.8349 42.0279C42.8349 42.0279 42.6686 44.0944 41.2552 44.4537C39.8419 44.813 37.5139 43.196 37.0983 42.8365C36.7656 42.5671 30.8628 38.5241 28.7012 36.5475C28.1192 36.0085 27.4541 34.9304 28.7843 33.6726C31.7773 30.7078 35.3523 27.0243 37.5139 24.6884C38.5116 23.6102 39.5092 21.0946 35.3523 24.1492C29.4495 28.5516 23.6297 32.6843 23.6297 32.6843C23.6297 32.6843 22.2994 33.5827 19.8053 32.7741C17.311 31.9656 14.4011 30.8875 14.4011 30.8875C14.4011 30.8875 12.4059 29.5398 15.8146 28.1023Z" fill="white"/>
</g>
<defs>
<filter id="filter0_i_0_7078" x="11.3818" y="11.3823" width="36.5859" height="37.0857" filterUnits="userSpaceOnUse" color-interpolation-filters="sRGB">
<feFlood flood-opacity="0" result="BackgroundImageFix"/>
<feBlend mode="normal" in="SourceGraphic" in2="BackgroundImageFix" result="shape"/>
<feColorMatrix in="SourceAlpha" type="matrix" values="0 0 0 0 0 0 0 0 0 0 0 0 0 0 0 0 0 0 127 0" result="hardAlpha"/>
<feOffset dy="0.5"/>
<feGaussianBlur stdDeviation="1.25"/>
<feComposite in2="hardAlpha" operator="arithmetic" k2="-1" k3="1"/>
<feColorMatrix type="matrix" values="0 0 0 0 0 0 0 0 0 0 0 0 0 0 0 0 0 0 0.1 0"/>
<feBlend mode="normal" in2="shape" result="effect1_innerShadow_0_7078"/>
</filter>
<linearGradient id="paint0_linear_0_7078" x1="5.28461" y1="4.4716" x2="55.2852" y2="58.5373" gradientUnits="userSpaceOnUse">
<stop stop-color="#0088CC"/>
<stop offset="1" stop-color="#0083C5"/>
</linearGradient>
</defs>
</svg>
